<svg width="56" height="56" viewBox="0 0 56 56" fill="none" xmlns="http://www.w3.org/2000/svg">
<circle cx="28" cy="28.0001" r="21.1671" fill="white" stroke="#333333" stroke-width="1.5"/>
<circle cx="28" cy="27.9998" r="18.698" stroke="#333333" stroke-width="1.5"/>
<circle cx="28.3267" cy="21.6562" r="7.95508" fill="white" stroke="#333333" stroke-width="1.5"/>
<path d="M23.6721 18.9485C25.0116 17.5947 28.5954 15.4687 32.2149 17.7954" stroke="#333333" stroke-width="1.5" stroke-linecap="round"/>
<path d="M24.1583 21.8328C25.4978 20.479 29.0816 18.353 32.7011 20.6797" stroke="#333333" stroke-width="1.5" stroke-linecap="round"/>
<path d="M24.3644 24.717C25.7039 23.3632 29.2877 21.2373 32.9072 23.5639" stroke="#333333" stroke-width="1.5" stroke-linecap="round"/>
<circle cx="22.0022" cy="31.2471" r="7.95508" fill="white" stroke="#333333" stroke-width="1.5"/>
<path d="M17.5051 29.0588C18.8446 27.705 22.4284 25.5791 26.0479 27.9057" stroke="#333333" stroke-width="1.5" stroke-linecap="round"/>
<path d="M17.8287 32.2835C19.1682 30.9296 22.752 28.8037 26.3715 31.1303" stroke="#333333" stroke-width="1.5" stroke-linecap="round"/>
<path d="M18.1626 35.5081C19.5021 34.1542 23.0859 32.0283 26.7054 34.355" stroke="#333333" stroke-width="1.5" stroke-linecap="round"/>
<circle cx="33.9978" cy="32.1621" r="7.95508" fill="white" stroke="#333333" stroke-width="1.5"/>
<path d="M29.3617 30.3989C30.7012 29.0451 34.285 26.9192 37.9045 29.2458" stroke="#333333" stroke-width="1.5" stroke-linecap="round"/>
<path d="M29.8479 33.4194C31.1874 32.0656 34.7712 29.9397 38.3907 32.2663" stroke="#333333" stroke-width="1.5" stroke-linecap="round"/>
<path d="M30.2973 36.4399C31.6367 35.0861 35.2206 32.9602 38.84 35.2868" stroke="#333333" stroke-width="1.5" stroke-linecap="round"/>
</svg>
