<svg width="56" height="56" viewBox="0 0 56 56" fill="none" xmlns="http://www.w3.org/2000/svg">
<path d="M45.9899 35.3597C45.1627 36.4646 43.568 36.6301 42.5242 35.727C31.5601 26.241 25.386 21.6302 12.0759 14.8711L15.2344 11.7241L19.0597 13.7141L20.182 10.3027C32.4972 18.5721 35.8256 22.286 45.7632 32.2508C46.5973 33.0871 46.6977 34.4141 45.9899 35.3597V35.3597Z" fill="url(#paint0_linear_556_29251)" stroke="#333333" stroke-width="1.5"/>
<circle cx="31.3201" cy="42.1716" r="5.69849" fill="#E7282A" stroke="#333333" stroke-width="1.5"/>
<path d="M29.7113 40.7614C30.3686 41.2872 31.8246 42.0282 33.2605 40.7614" stroke="#333333" stroke-width="1.5" stroke-linecap="round"/>
<path d="M31.5319 39.5495C31.4371 39.2293 31.384 38.7414 31.532 38.2377" stroke="#333333" stroke-width="1.5" stroke-linecap="round"/>
<path fill-rule="evenodd" clip-rule="evenodd" d="M16.7647 23.116C24.199 17.5982 27.7754 19.9441 30.6607 18.7564C32.5186 17.9916 35.8699 12.1886 35.8699 12.1886C36.8219 15.3171 35.3651 18.7788 35.3651 18.7788C35.3651 18.7788 38.1127 18.2885 41.0387 21.877C41.0387 21.877 36.4674 22.2686 33.3635 22.8775C31.218 24.8911 32.0305 29.8773 24.9844 34.8961C19.6054 38.7275 11.1975 36.8399 8.6168 36.1286C8.15836 36.0022 7.87173 35.5635 7.97425 35.1038C8.4042 33.176 10.127 28.0425 16.7647 23.116Z" fill="url(#paint1_linear_556_29251)" stroke="#333333" stroke-width="1.5" stroke-linecap="round"/>
<ellipse cx="14.7461" cy="30.7068" rx="0.990667" ry="1.04459" transform="rotate(-14.1381 14.7461 30.7068)" fill="#333333"/>
<path d="M16.2097 26.3016C17.7254 26.9738 20.829 29.5253 21.1175 34.3541" stroke="#333333" stroke-width="1.5" stroke-linecap="round"/>
<path d="M19.97 25.8372C20.6447 25.2195 23.4378 24.1195 24.5952 26.1904C25.881 28.4909 23.7442 30.4421 22.9908 31.136" stroke="#333333" stroke-width="1.5" stroke-linecap="round"/>
<path d="M21.4948 28.311L22.5342 27.5354" stroke="#333333" stroke-width="1.5" stroke-linecap="round"/>
<defs>
<linearGradient id="paint0_linear_556_29251" x1="45.4395" y1="35.0322" x2="15.4088" y2="12.4889" gradientUnits="userSpaceOnUse">
<stop offset="0.276042" stop-color="white"/>
<stop offset="1" stop-color="#0E6600"/>
</linearGradient>
<linearGradient id="paint1_linear_556_29251" x1="25.9069" y1="11.0293" x2="22.7526" y2="38.1374" gradientUnits="userSpaceOnUse">
<stop stop-color="#3C5A5E"/>
<stop offset="1" stop-color="white"/>
</linearGradient>
</defs>
</svg>
