<svg width="80" height="80" viewBox="0 0 80 80" fill="none" xmlns="http://www.w3.org/2000/svg">
<path d="M14.8875 48.2062L10.075 40.6624L11.3937 35.4749L22.525 28.1187L37.8999 26.2312L55.3499 28.4937L63.75 31.7937C63.75 31.7937 70.0687 37.2625 70.1625 38.3937C70.2562 39.525 68.4624 45.4687 68.3687 45.7499C68.2749 46.0312 67.0499 52.1625 63.3687 53.4812C59.6875 54.7999 36.0187 58.1999 35.6375 58.0062C35.2562 57.8124 14.8875 48.2062 14.8875 48.2062Z" fill="#2F2F2F"/>
<path d="M12.3438 45.8499C12.3438 45.8499 12.4875 44.2499 13.0313 42.6562C13.7563 40.5187 20.4562 31.2312 39.225 31.2312C57.9937 31.2312 68.3688 40.475 67.3313 45.0937C66.2938 49.7125 53.375 61.3187 53.375 61.3187C53.375 61.3187 30.7375 57.8312 30.3625 57.7374C29.9813 57.6374 12.3438 45.8499 12.3438 45.8499Z" fill="#F7B03A"/>
<path d="M21.075 40.3501C20.525 40.4688 20.0437 40.8251 20.0937 41.4626C20.1375 42.1001 20.725 42.4001 21.25 42.3126C22.0687 42.1751 22.3625 41.5938 22.2562 41.0251C22.15 40.5063 21.575 40.2376 21.075 40.3501ZM20.55 43.3188C21.1 44.1876 20.2687 45.3938 18.6062 45.9188C16.9437 46.4438 15.7875 46.1813 15.5937 45.0438C15.4 43.9063 16.8812 43.1876 17.6437 42.9251C18.4062 42.6626 19.9812 42.4251 20.55 43.3188ZM29.4562 37.0313C29.4937 37.8751 30.7 38.3438 32.4062 38.1251C34.1125 37.9063 35.025 36.9688 34.9375 36.1188C34.85 35.2688 33.65 34.9376 32.275 35.0251C30.9 35.1126 29.4125 35.9626 29.4562 37.0313ZM35.3125 34.8251C35.3125 35.5813 36.2062 35.8313 37.3625 35.7626C38.7375 35.6876 39.1125 35.1501 39.175 34.6501C39.2375 34.1501 38.4125 33.3626 37.25 33.4501C36.1 33.5376 35.3125 33.9938 35.3125 34.8251ZM46.775 41.9001C46.6875 42.8563 47.3437 43.9063 49.9187 43.6938C52.4937 43.4813 53 42.1876 53 41.7313C53 41.2751 52.575 39.8876 50.1187 39.8501C48.6375 39.8251 46.9062 40.4563 46.775 41.9001ZM58.7687 41.3563C58.7187 41.8438 58.875 43.1063 61.1937 43.0376C63.5062 42.9751 63.225 42.1876 63.225 41.8376C63.225 41.4876 62.4375 40.2001 60.8 40.0251C59.4937 39.8813 58.8562 40.5438 58.7687 41.3563ZM61.7375 44.7376C61.6937 45.3251 62.3687 45.7876 63.8125 45.7001C65.0375 45.6251 65.5687 44.9813 65.5375 44.5001C65.4937 43.8001 64.8187 43.4501 63.7687 43.4938C62.85 43.5313 61.8062 43.9126 61.7375 44.7376ZM35.225 50.5938C35.25 51.0938 36.3187 51.6876 38.0437 51.6876C39.7687 51.6876 40.0937 50.9688 40.0937 50.4438C40.0937 49.9188 39.55 49.3313 37.9562 49.2626C36.5312 49.2001 35.1812 49.7438 35.225 50.5938Z" fill="#FFE36A"/>
<path d="M17.3188 48.8688C17.3813 48.7188 17.4563 48.0625 17.7751 47.5125C18.0563 47.0313 18.5563 46.6375 19.1313 46.6375C20.1376 46.6375 22.4063 47.0313 22.9313 47.75C23.3126 48.275 23.2813 50.2188 21.7501 50.7188C20.2188 51.225 17.3188 48.8688 17.3188 48.8688ZM21.9876 38.8188C22.0188 39.2188 22.6626 40.0188 23.5188 39.9563C24.3688 39.8938 26.8376 38.7563 27.0813 38.25C27.3188 37.75 26.3188 36.6125 25.6626 36.6125C25.0063 36.6125 21.9251 37.9938 21.9876 38.8188ZM47.1501 45.55C46.8939 46.0688 46.6251 47.6 47.7376 48.0188C48.8501 48.4313 53.1563 48.6313 53.1563 47.3875C53.1563 46.1438 51.9313 45.25 51.4751 45.1813C51.0126 45.1125 47.5438 44.7625 47.1501 45.55ZM52.1938 43.5188C51.4876 44.6125 52.7751 45.9125 53.7251 46.3563C55.7751 47.3188 56.8064 47.1563 57.5251 46.6188C58.7501 45.7 58.3313 44.7813 55.7126 43.5625C53.8438 42.6875 52.6751 42.775 52.1938 43.5188Z" fill="#D64C12"/>
<path d="M40.6688 37C40.6501 38.1563 43.2376 39.325 45.1001 39.3813C46.9626 39.4375 47.4501 38.5625 47.5876 38.15C47.7251 37.7375 47.0688 36.3188 46.3313 35.7125C45.5938 35.1063 43.7063 34.4813 42.8563 34.5938C42.0063 34.7 40.6938 35.525 40.6688 37Z" fill="#7F594B"/>
<path d="M25.4563 43.0751C25.5813 43.8563 26.7751 44.3876 28.8751 44.5251C31.4188 44.6876 33.0313 43.5376 33.0876 43.0501C33.1438 42.5563 31.6626 41.3001 29.0688 41.3001C25.9188 41.2938 25.3501 42.3876 25.4563 43.0751Z" fill="#FE8D00"/>
<path d="M24.5562 47.725C24.475 49.1187 25.4562 49.6937 26.825 49.6375C28.1937 49.5812 30.7625 48.3 31.2812 46.8187C31.6062 45.9 30.075 44.275 27.8312 44.3562C26.5375 44.4062 24.625 46.5062 24.5562 47.725Z" fill="#7F594B"/>
<path d="M48.6313 39.4876C49.1813 39.7876 51.2313 39.2126 52.8438 38.8876C54.4563 38.5626 56.1 38.3939 56.3438 37.8751C56.5875 37.3564 56.15 35.1689 53.7438 34.9751C51.3375 34.7814 49.9688 35.6876 49.3938 36.3126C48.8188 36.9439 48.4375 37.7064 48.4063 37.9251C48.3813 38.1501 48.25 39.2814 48.6313 39.4876ZM58.425 43.5939C59.2063 43.4564 58.7 41.1064 58.0688 40.3939C57.4375 39.6814 55.6625 39.3564 54.5375 39.4939C53.4188 39.6314 52.65 39.9314 52.5938 40.5626C52.5375 41.1939 54.5375 42.2564 55.575 42.7251C56.6188 43.1814 57.9563 43.6751 58.425 43.5939Z" fill="#FE8D00"/>
<path d="M31.5625 45.3624C32.2063 45.5874 33.7063 45.1499 33.725 44.1999C33.7438 43.2499 32.8875 42.3624 32.0438 42.5562C31.6188 42.6499 30.7313 43.7562 30.75 44.1812C30.7688 44.6124 31.2313 45.2499 31.5625 45.3624ZM34.7125 39.6624C34.7688 40.4187 36.45 41.2062 37.0313 40.7062C37.5813 40.2312 37.2625 38.2124 36.55 38.2124C35.6625 38.2124 34.6875 39.3499 34.7125 39.6624ZM36.3 43.2937C36.3125 43.5624 36.7063 44.7999 37.675 44.7812C38.6438 44.7624 39.9563 43.7749 39.9563 43.2749C39.9563 42.7749 38.4313 41.1687 37.7125 41.1874C37.225 41.1999 36.2813 42.7749 36.3 43.2937Z" fill="#92A51E"/>
<path d="M39.4875 39.7188C39.375 40.3875 39.875 40.4563 40.3187 40.5313C40.7625 40.6063 41.325 40.7438 41.9062 41.5C42.4875 42.2563 43.0562 43.825 43.125 43.9938C43.3375 44.5375 44.3062 44.825 45 44.15C45.6937 43.475 44.325 40.5 43.1062 39.55C41.8812 38.6 39.7 38.4813 39.4875 39.7188Z" fill="#FBE0BC"/>
<path d="M39.175 41.3062C39.2687 41.925 40.6812 43.0625 41.6687 42.5625C42.6562 42.0625 41.5937 40.2187 41.1625 40.0187C40.8937 39.8875 39.0375 40.4062 39.175 41.3062ZM44.9187 39.7812C44.475 39.7625 44.1062 39.9187 44.125 40.6687C44.1437 41.425 44.4312 42.275 45.4187 42.3312C46.4062 42.3875 46.5 41.0937 46.5 40.9375C46.5 40.7812 45.9 39.8187 44.9187 39.7812ZM45.2062 43.875C44.8375 43.7875 43.0625 44.55 43.025 45.2687C42.9875 45.9812 43.6437 46.525 44.7625 46.6625C45.8812 46.8 46.6375 46.8 46.7937 46.2562C46.9437 45.7125 46.3062 44.1437 45.2062 43.875Z" fill="#92A51E"/>
<path d="M53.2625 50.3811C53.3312 50.7999 54.8062 51.4561 55.2812 51.3249C55.75 51.1936 56.9062 48.7811 58.6375 48.2874C60.3687 47.7874 60.9437 47.9999 61.1812 47.7374C61.4187 47.4749 61.075 46.2686 60.5 46.0624C59.925 45.8561 58.375 45.5624 56.4375 46.6936C54.45 47.8436 53.1812 49.9124 53.2625 50.3811ZM34.7937 44.4311C33.9437 44.4811 32.8 45.7436 32.3062 46.8936C31.55 48.6374 31.3125 50.0874 31.5187 50.4561C31.7312 50.8249 33.2375 51.3374 33.85 50.9249C34.0062 50.8186 34.1625 48.8811 34.925 47.4124C35.4437 46.4186 36.3125 46.0249 36.4687 45.8686C36.625 45.7124 36.1812 44.3561 34.7937 44.4311ZM27.4812 35.5811C27.25 35.7999 26.6187 36.8124 26.825 38.5936C26.9875 39.9499 27.175 40.7749 27.6125 40.9749C27.95 41.1311 30.3625 41.3686 30.575 40.7374C30.7875 40.1061 29.2937 38.3561 29.1312 38.0374C28.9687 37.7186 28.8937 35.8874 28.8687 35.6561C28.8437 35.4186 27.85 35.2374 27.4812 35.5811Z" fill="#FBE0AF"/>
<path d="M76.6688 35.3812C75.5376 33.1187 74.3126 32.2687 73.2751 32.2687C72.2376 32.2687 68.6563 33.9687 68.6563 33.9687C68.6563 33.9687 60.6251 25.3437 40.2563 25.0499C20.5438 24.7624 12.1626 32.9187 12.1626 32.9187C12.1626 32.9187 9.32507 30.7562 6.58757 31.0374C3.85632 31.3249 1.50007 38.4937 2.72507 40.5687C3.95007 42.6437 5.74382 42.5499 7.15632 43.3062C8.56882 44.0624 9.89382 44.9124 10.1751 45.3812C10.4563 45.8499 11.3063 56.3249 13.9501 61.0374C16.5938 65.7562 21.5876 72.0749 39.8876 72.4499C58.1876 72.8249 63.1251 65.4374 65.3501 61.2249C67.9938 56.2249 69.2188 46.9812 69.2188 46.9812C69.2188 46.9812 71.1063 45.2812 73.1813 44.4374C75.4751 43.4999 76.4813 43.3062 77.1438 42.3624C77.8001 41.4124 77.8001 37.6437 76.6688 35.3812ZM40.5438 53.0187C20.8313 52.8249 11.3001 46.5999 11.5876 39.5312C11.7751 34.9124 21.0188 27.2687 39.1313 27.4562C57.4376 27.6499 68.8438 34.2499 68.7501 40.3749C68.6501 46.5062 59.8813 53.2062 40.5438 53.0187Z" fill="#6A6E70"/>
<path opacity="0.6" d="M39.8188 35.7813C41.8125 35.5688 40.9063 32.2126 42.5438 28.9751C46.2875 21.5563 53.6438 20.8063 53.4375 14.4751C53.2125 7.55009 42.475 4.18759 39.2063 6.84384C38.1563 7.70009 44.175 8.68134 43.225 12.6313C42.2688 16.5813 34.9875 16.8501 33.2188 23.1813C31.1125 30.6938 38.525 35.9126 39.8188 35.7813Z" fill="#EAEAEA"/>
</svg>
