<svg width="56" height="56" viewBox="0 0 56 56" fill="none" xmlns="http://www.w3.org/2000/svg">
<path fill-rule="evenodd" clip-rule="evenodd" d="M35.6106 24.0263C38.0872 24.0263 40.095 22.0186 40.095 19.5419C40.095 17.0653 38.0872 15.0575 35.6106 15.0575C33.1339 15.0575 31.1262 17.0653 31.1262 19.5419C31.1262 22.0186 33.1339 24.0263 35.6106 24.0263ZM35.6106 21.4882C36.6855 21.4882 37.5569 20.6168 37.5569 19.5419C37.5569 18.467 36.6855 17.5956 35.6106 17.5956C34.5357 17.5956 33.6643 18.467 33.6643 19.5419C33.6643 20.6168 34.5357 21.4882 35.6106 21.4882Z" fill="#FFEDAE"/>
<path d="M39.345 19.5419C39.345 21.6044 37.673 23.2763 35.6106 23.2763V24.7763C38.5015 24.7763 40.845 22.4328 40.845 19.5419H39.345ZM35.6106 15.8075C37.673 15.8075 39.345 17.4795 39.345 19.5419H40.845C40.845 16.651 38.5015 14.3075 35.6106 14.3075V15.8075ZM31.8762 19.5419C31.8762 17.4795 33.5482 15.8075 35.6106 15.8075V14.3075C32.7197 14.3075 30.3762 16.651 30.3762 19.5419H31.8762ZM35.6106 23.2763C33.5482 23.2763 31.8762 21.6044 31.8762 19.5419H30.3762C30.3762 22.4328 32.7197 24.7763 35.6106 24.7763V23.2763ZM36.8069 19.5419C36.8069 20.2026 36.2713 20.7382 35.6106 20.7382V22.2382C37.0997 22.2382 38.3069 21.031 38.3069 19.5419H36.8069ZM35.6106 18.3456C36.2713 18.3456 36.8069 18.8812 36.8069 19.5419H38.3069C38.3069 18.0528 37.0997 16.8456 35.6106 16.8456V18.3456ZM34.4143 19.5419C34.4143 18.8812 34.9499 18.3456 35.6106 18.3456V16.8456C34.1215 16.8456 32.9143 18.0528 32.9143 19.5419H34.4143ZM35.6106 20.7382C34.9499 20.7382 34.4143 20.2026 34.4143 19.5419H32.9143C32.9143 21.031 34.1215 22.2382 35.6106 22.2382V20.7382Z" fill="#333333"/>
<path fill-rule="evenodd" clip-rule="evenodd" d="M29.4822 13.5757C26.9919 15.2474 26.0377 18.306 27.3623 20.6002C28.6869 22.8944 31.8127 23.5974 34.5057 22.2766L29.4822 13.5757Z" fill="#FF4444"/>
<path d="M29.4822 13.5757L30.1317 13.2007C30.0278 13.0208 29.854 12.892 29.6517 12.8451C29.4494 12.7982 29.2366 12.8372 29.0642 12.953L29.4822 13.5757ZM34.5057 22.2766L34.8359 22.95C35.0224 22.8585 35.1626 22.6938 35.2231 22.4951C35.2836 22.2964 35.259 22.0815 35.1552 21.9016L34.5057 22.2766ZM28.0118 20.2252C26.9293 18.3502 27.6576 15.7039 29.9002 14.1984L29.0642 12.953C26.3262 14.791 25.1462 18.2617 26.7128 20.9752L28.0118 20.2252ZM34.1754 21.6032C31.7503 22.7927 29.0944 22.1002 28.0118 20.2252L26.7128 20.9752C28.2794 23.6887 31.8752 24.4021 34.8359 22.95L34.1754 21.6032ZM35.1552 21.9016L30.1317 13.2007L28.8327 13.9507L33.8561 22.6516L35.1552 21.9016Z" fill="#333333"/>
<path d="M12.737 28.2411C12.5484 29.5465 14.6537 31.7366 15.9015 32.124L26.3918 30.8925C28.017 28.8261 27.2676 24.6426 25.4762 23.1697C23.6848 21.6967 21.6074 22.2499 20.9327 23.5838C20.1989 20.8566 18.0499 19.3996 16.2525 20.0879C13.8493 21.0081 14.3223 24.0552 15.7206 26.3201C14.3295 25.8513 12.9256 26.9358 12.737 28.2411Z" fill="#90D072" stroke="#333333" stroke-width="1.5" stroke-linecap="round" stroke-linejoin="round"/>
<path fill-rule="evenodd" clip-rule="evenodd" d="M16.0341 14.7076C17.8653 16.8859 21.094 17.3215 23.4477 15.6376C25.8013 13.9537 26.4314 10.7572 24.9611 8.3208L16.0341 14.7076Z" fill="#FF4444"/>
<path d="M16.0341 14.7076L15.5977 14.0977C15.4276 14.2193 15.3161 14.4064 15.29 14.6139C15.2638 14.8213 15.3254 15.0302 15.46 15.1903L16.0341 14.7076ZM24.9611 8.3208L25.6033 7.93329C25.4952 7.75428 25.3174 7.62849 25.1126 7.58626C24.9079 7.54403 24.6948 7.58918 24.5247 7.71083L24.9611 8.3208ZM23.0113 15.0276C20.9786 16.4819 18.1894 16.1059 16.6082 14.225L15.46 15.1903C17.5411 17.6658 21.2095 18.1611 23.8841 16.2476L23.0113 15.0276ZM24.319 8.70831C25.5886 10.8121 25.044 13.5734 23.0113 15.0276L23.8841 16.2476C26.5586 14.3341 27.2743 10.7023 25.6033 7.93329L24.319 8.70831ZM24.5247 7.71083L15.5977 14.0977L16.4705 15.3176L25.3975 8.93076L24.5247 7.71083Z" fill="#333333"/>
<path d="M20.7351 13.9941L20.7735 14.5167" stroke="#333333" stroke-width="1.5" stroke-linecap="round" stroke-linejoin="round"/>
<path d="M29.7106 18.799L29.1555 18.7476" stroke="#333333" stroke-width="1.5" stroke-linecap="round" stroke-linejoin="round"/>
<path d="M22.6311 12.5985L23.0529 12.9923" stroke="#333333" stroke-width="1.5" stroke-linecap="round" stroke-linejoin="round"/>
<path d="M32.0009 21.0543C27.8673 22.423 27.4789 29.9551 27.8673 31.2026L36.7312 31.997C39.3547 32.1641 42.9456 29.9183 43.0642 28.0811C43.1829 26.2439 41.9654 24.9642 40.4841 25.1648C42.3146 23.014 42.2963 20.4178 40.7102 19.3274C38.5896 17.8696 36.3478 19.9868 35.275 22.4228C34.8724 21.0111 33.253 20.6398 32.0009 21.0543Z" fill="#4F9466" stroke="#333333" stroke-width="1.5" stroke-linecap="round" stroke-linejoin="round"/>
<path fill-rule="evenodd" clip-rule="evenodd" d="M26.6445 34.0038C29.4604 34.0038 31.7432 31.7211 31.7432 28.9052C31.7432 26.0893 29.4604 23.8065 26.6445 23.8065C23.8286 23.8065 21.5459 26.0893 21.5459 28.9052C21.5459 31.7211 23.8286 34.0038 26.6445 34.0038ZM26.6445 31.2787C27.9554 31.2787 29.0181 30.216 29.0181 28.9052C29.0181 27.5943 27.9554 26.5316 26.6445 26.5316C25.3337 26.5316 24.271 27.5943 24.271 28.9052C24.271 30.216 25.3337 31.2787 26.6445 31.2787Z" fill="#FFEDAE"/>
<path d="M30.9932 28.9052C30.9932 31.3069 29.0462 33.2538 26.6445 33.2538V34.7538C29.8746 34.7538 32.4932 32.1353 32.4932 28.9052H30.9932ZM26.6445 24.5565C29.0462 24.5565 30.9932 26.5035 30.9932 28.9052H32.4932C32.4932 25.6751 29.8746 23.0565 26.6445 23.0565V24.5565ZM22.2959 28.9052C22.2959 26.5035 24.2428 24.5565 26.6445 24.5565V23.0565C23.4144 23.0565 20.7959 25.6751 20.7959 28.9052H22.2959ZM26.6445 33.2538C24.2428 33.2538 22.2959 31.3069 22.2959 28.9052H20.7959C20.7959 32.1353 23.4144 34.7538 26.6445 34.7538V33.2538ZM28.2681 28.9052C28.2681 29.8018 27.5412 30.5287 26.6445 30.5287V32.0287C28.3696 32.0287 29.7681 30.6303 29.7681 28.9052H28.2681ZM26.6445 27.2816C27.5412 27.2816 28.2681 28.0085 28.2681 28.9052H29.7681C29.7681 27.1801 28.3696 25.7816 26.6445 25.7816V27.2816ZM25.021 28.9052C25.021 28.0085 25.7479 27.2816 26.6445 27.2816V25.7816C24.9195 25.7816 23.521 27.1801 23.521 28.9052H25.021ZM26.6445 30.5287C25.7479 30.5287 25.021 29.8018 25.021 28.9052H23.521C23.521 30.6303 24.9195 32.0287 26.6445 32.0287V30.5287Z" fill="#333333"/>
<path d="M11.3237 32.1405C11.3237 31.036 12.2192 30.1405 13.3237 30.1405H41.7871C42.8917 30.1405 43.7871 31.036 43.7871 32.1405V32.6796C43.7871 40.9639 37.0714 47.6796 28.7871 47.6796H26.3237C18.0395 47.6796 11.3237 40.9639 11.3237 32.6796V32.1405Z" fill="#A6DAFF" stroke="#333333" stroke-width="1.5"/>
<path fill-rule="evenodd" clip-rule="evenodd" d="M16.7579 30.8905C16.4834 31.2329 16.3192 31.6676 16.3192 32.1405V32.6796C16.3192 39.3235 20.6386 44.9585 26.6225 46.9296H28.7871C36.6572 46.9296 43.0371 40.5497 43.0371 32.6796V32.1405C43.0371 31.4502 42.4775 30.8905 41.7871 30.8905H16.7579Z" fill="#CFEBFF"/>
<path fill-rule="evenodd" clip-rule="evenodd" d="M36.2416 44.8267C34.0729 46.1604 31.5199 46.9296 28.7872 46.9296H26.3238C23.7 46.9296 21.2417 46.2205 19.1304 44.9834C20.452 44.2266 23.8534 43.6879 27.841 43.6879C31.5475 43.6879 34.7475 44.1533 36.2416 44.8267Z" fill="#3FBAFF" fill-opacity="0.41"/>
<path d="M17.1182 39.1323C17.4804 39.7979 18.2799 41.1225 19.4181 41.6757" stroke="#333333" stroke-width="1.5" stroke-linecap="round"/>
<path d="M12.0463 35.1274H33.7244" stroke="#333333" stroke-width="1.5" stroke-linecap="round"/>
<path d="M37.9774 35.1274H42.9094" stroke="#333333" stroke-width="1.5" stroke-linecap="round"/>
</svg>
