<svg width="80" height="80" viewBox="0 0 80 80" fill="none" xmlns="http://www.w3.org/2000/svg">
<path d="M65.605 50.3874C65.88 47.2124 67.28 44.2124 69.53 41.9374L69.98 41.4874C76.63 34.8374 76.63 23.9874 69.98 17.3374L62.105 9.4624L53.53 18.0374C52.08 18.8124 50.73 19.7874 49.53 21.0124L49.08 21.4624C46.83 23.7124 43.805 25.1124 40.63 25.3874C34.28 25.9374 28.305 28.7124 23.805 33.2124C17.78 39.2374 15.255 47.4874 16.23 55.3624L12.23 59.3374L20.105 67.2124C30.48 77.5874 47.38 77.5874 57.78 67.2124C62.28 62.7124 65.055 56.7374 65.605 50.3874Z" fill="url(#paint0_linear_273_3306)"/>
<path d="M59.4325 31.8374L59.8825 31.3874C65.0325 26.2374 65.0325 17.8874 59.8825 12.7624C54.7325 7.6124 46.3825 7.6124 41.2575 12.7624L40.8075 13.2124C37.8921 16.1265 34.0399 17.9154 29.9325 18.2624C24.494 18.7331 19.3953 21.1053 15.5325 24.9624C6.65747 33.8374 6.65747 48.2374 15.5325 57.1124C24.4075 65.9874 38.8075 65.9874 47.6825 57.1124C51.5395 53.2495 53.9118 48.1509 54.3825 42.7124C54.7325 38.6124 56.5325 34.7624 59.4325 31.8374Z" fill="url(#paint1_linear_273_3306)"/>
<path d="M58.255 43.0375C58.53 39.8625 59.93 36.8625 62.18 34.5875L62.63 34.1375C69.28 27.4875 69.28 16.6375 62.63 9.9875C55.98 3.3375 45.13 3.3375 38.48 9.9875L38.03 10.4375C35.78 12.6875 32.755 14.0875 29.58 14.3625C23.255 14.9375 17.28 17.7125 12.78 22.2125C2.40503 32.5875 2.40503 49.4875 12.78 59.8875C23.155 70.2875 40.055 70.2625 50.455 59.8875C54.9492 55.3584 57.7099 49.3946 58.255 43.0375ZM29.93 18.2625C34.03 17.9125 37.88 16.1125 40.805 13.2125L41.105 12.9125C46.205 7.8125 54.53 7.5875 59.73 12.6125C60.9868 13.8299 61.9887 15.2852 62.6776 16.8936C63.3664 18.502 63.7283 20.2314 63.7423 21.9811C63.7563 23.7307 63.422 25.4657 62.7589 27.0849C62.0958 28.7041 61.1172 30.1752 59.88 31.4125L59.43 31.8625C56.5159 34.7778 54.7271 38.6301 54.38 42.7375C54.0629 46.4229 52.8716 49.9796 50.905 53.1125C49.705 55.0375 46.855 54.8625 45.88 52.8125L40.03 40.5375C40.03 40.5125 40.005 40.5125 40.005 40.4875C38.855 38.0625 39.28 35.1875 41.18 33.2875L43.005 31.4625C43.5807 30.8817 44.3045 30.4698 45.0979 30.2714C45.8912 30.0731 46.7238 30.096 47.505 30.3375C50.305 31.1875 53.505 30.4125 55.63 28.0125C58.205 25.0875 58.205 20.6375 55.63 17.7375C54.9284 16.9328 54.0685 16.2811 53.1041 15.8231C52.1396 15.3651 51.0912 15.1106 50.0241 15.0754C48.957 15.0402 47.8941 15.2251 46.9016 15.6186C45.909 16.0121 45.0082 16.6057 44.255 17.3625C43.257 18.3661 42.5489 19.6208 42.2056 20.9939C41.8624 22.367 41.8967 23.8073 42.305 25.1625C42.78 26.7375 42.33 28.4625 41.155 29.6375L39.305 31.4875C37.405 33.3875 34.555 33.8125 32.13 32.6875C32.105 32.6875 32.08 32.6625 32.055 32.6625L19.755 26.8375C17.705 25.8875 17.53 23.0375 19.43 21.8125C22.58 19.8125 26.18 18.5875 29.93 18.2625ZM15.53 57.1125C7.90503 49.4875 6.83003 37.7875 12.305 29.0125C13.08 27.7625 14.655 27.3125 15.98 27.9125L31.005 34.9625C33.93 36.3375 36.305 38.7125 37.705 41.6125L44.83 56.5625C45.455 57.8875 44.98 59.4625 43.755 60.2375C34.955 65.8375 23.18 64.7875 15.53 57.1125Z" fill="url(#paint2_linear_273_3306)"/>
<path d="M29.9326 18.2626C34.0326 17.9126 37.8826 16.1126 40.8076 13.2126L41.1076 12.9126C46.2076 7.81256 54.5326 7.58756 59.7326 12.6126C60.9893 13.83 61.9913 15.2853 62.6801 16.8937C63.3689 18.5021 63.7309 20.2315 63.7448 21.9811C63.7588 23.7308 63.4245 25.4658 62.7614 27.085C62.0983 28.7042 61.1197 30.1752 59.8826 31.4126L59.4326 31.8626C56.5185 34.7779 54.7296 38.6301 54.3826 42.7376C54.0654 46.4229 52.8741 49.9796 50.9076 53.1126C49.7076 55.0376 46.8576 54.8626 45.8826 52.8126L40.0326 40.5376C40.0326 40.5126 40.0076 40.5126 40.0076 40.4876C38.8576 38.0626 39.2826 35.1876 41.1826 33.2876L43.0076 31.4626C43.5833 30.8818 44.3071 30.4698 45.1004 30.2715C45.8938 30.0732 46.7263 30.096 47.5076 30.3376C50.3076 31.1876 53.5076 30.4126 55.6326 28.0126C58.2076 25.0876 58.2076 20.6376 55.6326 17.7376C54.9309 16.9328 54.0711 16.2812 53.1066 15.8232C52.1422 15.3652 51.0937 15.1107 50.0266 15.0755C48.9595 15.0403 47.8966 15.2252 46.9041 15.6187C45.9116 16.0122 45.0107 16.6058 44.2576 17.3626C43.2596 18.3661 42.5514 19.6209 42.2082 20.994C41.8649 22.367 41.8992 23.8074 42.3076 25.1626C42.7826 26.7376 42.3326 28.4626 41.1576 29.6376L39.3076 31.4876C37.4076 33.3876 34.5576 33.8126 32.1326 32.6876C32.1076 32.6876 32.0826 32.6626 32.0576 32.6626L19.7576 26.8376C17.7076 25.8876 17.5326 23.0376 19.4326 21.8126C22.5826 19.8126 26.1826 18.5876 29.9326 18.2626ZM15.5326 57.1126C7.90757 49.4876 6.83257 37.7876 12.3076 29.0126C13.0826 27.7626 14.6576 27.3126 15.9826 27.9126L31.0076 34.9626C33.9326 36.3376 36.3076 38.7126 37.7076 41.6126L44.8326 56.5626C45.4576 57.8876 44.9826 59.4626 43.7576 60.2376C34.9576 65.8376 23.1826 64.7876 15.5326 57.1126Z" fill="url(#paint3_linear_273_3306)"/>
<path d="M46.6576 25.7624C44.9826 24.0874 44.9826 21.3874 46.6576 19.7124C47.4638 18.9079 48.5562 18.4561 49.6951 18.4561C50.834 18.4561 51.9265 18.9079 52.7326 19.7124C54.4076 21.3874 54.4076 24.1124 52.7326 25.7874C51.0576 27.4374 48.3326 27.4374 46.6576 25.7624Z" fill="url(#paint4_radial_273_3306)"/>
<defs>
<linearGradient id="paint0_linear_273_3306" x1="20.9375" y1="68.4374" x2="71.5625" y2="18.1249" gradientUnits="userSpaceOnUse">
<stop stop-color="#A45E96"/>
<stop offset="0.217" stop-color="#CF8FA4"/>
<stop offset="0.384" stop-color="#F8B2B4"/>
<stop offset="0.509" stop-color="#FFBAB8"/>
<stop offset="0.67" stop-color="#FFD4C8"/>
<stop offset="0.746" stop-color="#FEB8B3"/>
<stop offset="1" stop-color="#FFE4D1"/>
</linearGradient>
<linearGradient id="paint1_linear_273_3306" x1="21.6375" y1="18.8199" x2="53.7925" y2="50.9774" gradientUnits="userSpaceOnUse">
<stop stop-color="#ED1C26"/>
<stop offset="0.456" stop-color="#ED1452"/>
<stop offset="1" stop-color="#EC098C"/>
</linearGradient>
<linearGradient id="paint2_linear_273_3306" x1="18.8825" y1="16.065" x2="56.5475" y2="53.7325" gradientUnits="userSpaceOnUse">
<stop offset="0.006" stop-color="#FDEADB"/>
<stop offset="1" stop-color="#FFDEC2"/>
</linearGradient>
<linearGradient id="paint3_linear_273_3306" x1="12.1876" y1="29.6876" x2="55.9376" y2="48.1251" gradientUnits="userSpaceOnUse">
<stop stop-color="#C83C62"/>
<stop offset="1" stop-color="#E94751"/>
</linearGradient>
<radialGradient id="paint4_radial_273_3306" cx="0" cy="0" r="1" gradientUnits="userSpaceOnUse" gradientTransform="translate(45.4003 23.2817) rotate(100.233) scale(15.0043 5.9899)">
<stop offset="0.096" stop-color="#FFC6BA"/>
<stop offset="0.535" stop-color="#C57C86"/>
<stop offset="0.868" stop-color="#9D504A"/>
</radialGradient>
</defs>
</svg>
