<svg width="56" height="56" viewBox="0 0 56 56" fill="none" xmlns="http://www.w3.org/2000/svg">
<rect x="12.5785" y="16.9059" width="33.1441" height="22.1868" rx="4" fill="white" stroke="#333333" stroke-width="1.5" stroke-linejoin="round"/>
<rect x="10.2773" y="16.9059" width="33.1441" height="22.1868" rx="4" fill="white" stroke="#333333" stroke-width="1.5" stroke-linejoin="round"/>
<path fill-rule="evenodd" clip-rule="evenodd" d="M17.2434 18.9459C15.0343 18.9459 13.2434 20.7368 13.2434 22.9459V33.0528C13.2434 35.262 15.0343 37.0528 17.2434 37.0528H37.4563C39.6654 37.0528 41.4563 35.262 41.4563 33.0528V22.9459C41.4563 20.7368 39.6654 18.9459 37.4563 18.9459H17.2434Z" fill="white"/>
<path fill-rule="evenodd" clip-rule="evenodd" d="M34.5284 15.2547H19.1705V20.9733C17.4294 22.7965 16.3644 25.2406 16.3644 27.9271C16.3644 30.6135 17.4294 33.0576 19.1705 34.8808V40.7448H34.5284V34.8807C36.2695 33.0575 37.3344 30.6134 37.3344 27.9271C37.3344 25.2407 36.2695 22.7966 34.5284 20.9734V15.2547Z" fill="white"/>
<path d="M19.1705 15.2547V14.5047H18.4205V15.2547H19.1705ZM34.5284 15.2547H35.2784V14.5047H34.5284V15.2547ZM19.1705 20.9733L19.7129 21.4913L19.9205 21.2739V20.9733H19.1705ZM19.1705 34.8808H19.9205V34.5802L19.7129 34.3628L19.1705 34.8808ZM19.1705 40.7448H18.4205V41.4948H19.1705V40.7448ZM34.5284 40.7448V41.4948H35.2784V40.7448H34.5284ZM34.5284 34.8807L33.986 34.3628L33.7784 34.5802V34.8807H34.5284ZM34.5284 20.9734H33.7784V21.274L33.986 21.4913L34.5284 20.9734ZM19.1705 16.0047H34.5284V14.5047H19.1705V16.0047ZM19.9205 20.9733V15.2547H18.4205V20.9733H19.9205ZM17.1144 27.9271C17.1144 25.4437 18.0978 23.1825 19.7129 21.4913L18.6281 20.4553C16.7609 22.4105 15.6144 25.0376 15.6144 27.9271H17.1144ZM19.7129 34.3628C18.0978 32.6716 17.1144 30.4104 17.1144 27.9271H15.6144C15.6144 30.8166 16.7609 33.4436 18.6281 35.3988L19.7129 34.3628ZM19.9205 40.7448V34.8808H18.4205V40.7448H19.9205ZM34.5284 39.9948H19.1705V41.4948H34.5284V39.9948ZM33.7784 34.8807V40.7448H35.2784V34.8807H33.7784ZM36.5844 27.9271C36.5844 30.4103 35.601 32.6716 33.986 34.3628L35.0708 35.3987C36.938 33.4435 38.0844 30.8165 38.0844 27.9271H36.5844ZM33.986 21.4913C35.601 23.1825 36.5844 25.4438 36.5844 27.9271H38.0844C38.0844 25.0376 36.938 22.4106 35.0708 20.4554L33.986 21.4913ZM33.7784 15.2547V20.9734H35.2784V15.2547H33.7784Z" fill="#333333"/>
<ellipse cx="26.8494" cy="27.9998" rx="7.08759" ry="6.90327" fill="white" stroke="#333333" stroke-width="1.5"/>
<path d="M22.9841 25.9974H30.4553" stroke="#333333" stroke-width="1.5" stroke-linecap="round" stroke-linejoin="round"/>
<path d="M24.2936 28.7808H29.1458" stroke="#333333" stroke-width="1.5" stroke-linecap="round" stroke-linejoin="round"/>
<path d="M25.3549 31.5643H28.0847" stroke="#333333" stroke-width="1.5" stroke-linecap="round" stroke-linejoin="round"/>
</svg>
