<svg width="56" height="56" viewBox="0 0 56 56" fill="none" xmlns="http://www.w3.org/2000/svg">
<circle cx="28" cy="28.0001" r="19.9506" fill="white" stroke="#333333" stroke-width="1.5"/>
<circle cx="28" cy="28.0001" r="16.9552" fill="white" stroke="#333333" stroke-width="1.5"/>
<rect x="31.8347" y="15.9995" width="5" height="5" transform="rotate(30 31.8347 15.9995)" fill="white" stroke="#333333" stroke-width="1.5" stroke-linejoin="round"/>
<rect x="20.66" y="31.897" width="5" height="5" transform="rotate(52.6344 20.66 31.897)" fill="white" stroke="#333333" stroke-width="1.5" stroke-linejoin="round"/>
<rect x="37.6227" y="21.1914" width="2.29702" height="4.31835" rx="0.5" transform="rotate(-1.12128 37.6227 21.1914)" fill="white" stroke="#333333" stroke-width="1.5" stroke-linejoin="round"/>
<rect x="29.8153" y="38.1079" width="2.29702" height="4.31835" rx="0.5" transform="rotate(90.5746 29.8153 38.1079)" fill="white" stroke="#333333" stroke-width="1.5" stroke-linejoin="round"/>
<rect x="28.894" y="31.897" width="2.29702" height="4.31835" rx="0.5" transform="rotate(132.741 28.894 31.897)" fill="white" stroke="#333333" stroke-width="1.5" stroke-linejoin="round"/>
<rect x="27.7473" y="24.7603" width="3.11901" height="3.11901" rx="0.5" transform="rotate(-17.1783 27.7473 24.7603)" fill="white" stroke="#333333" stroke-width="1.5" stroke-linejoin="round"/>
<rect x="14.3434" y="26.4683" width="2.29702" height="4.5182" rx="0.5" transform="rotate(-17.1783 14.3434 26.4683)" fill="white" stroke="#333333" stroke-width="1.5" stroke-linejoin="round"/>
<rect x="16.1078" y="26.6411" width="2.29702" height="4.5182" rx="0.5" transform="rotate(-17.1783 16.1078 26.6411)" fill="white" stroke="#333333" stroke-width="1.5" stroke-linejoin="round"/>
<rect x="31.1343" y="28.8062" width="8.56172" height="8.56172" rx="4.28086" transform="rotate(-11.1954 31.1343 28.8062)" fill="white" stroke="#333333" stroke-width="1.5" stroke-linejoin="round"/>
<path fill-rule="evenodd" clip-rule="evenodd" d="M22.7104 26.0393C24.1276 24.1777 23.7675 21.5196 21.9059 20.1023C20.0443 18.6851 17.3862 19.0452 15.9689 20.9068L22.7104 26.0393Z" fill="white" stroke="#333333" stroke-width="1.5" stroke-linejoin="round"/>
<path fill-rule="evenodd" clip-rule="evenodd" d="M24.3762 24.0774C25.7935 22.2157 25.4334 19.5577 23.5718 18.1404C21.7101 16.7231 19.0521 17.0833 17.6348 18.9449L24.3762 24.0774Z" fill="white" stroke="#333333" stroke-width="1.5" stroke-linejoin="round"/>
<path fill-rule="evenodd" clip-rule="evenodd" d="M26.001 22.1594C27.4183 20.2978 27.0581 17.6398 25.1965 16.2225C23.3349 14.8052 20.6769 15.1653 19.2596 17.027L26.001 22.1594Z" fill="white" stroke="#333333" stroke-width="1.5" stroke-linejoin="round"/>
</svg>
