<svg width="80" height="80" viewBox="0 0 80 80" fill="none" xmlns="http://www.w3.org/2000/svg">
<path d="M46.725 75.0001H33.2C13.8275 75.0001 5 61.9826 5 45.9576V32.4001H74.925V45.9576C74.925 61.9826 66.4075 75.0001 46.725 75.0001Z" fill="url(#paint0_linear_250_8042)"/>
<path d="M54.925 17.95C62.9 17.95 69.375 24.425 69.375 32.4C69.375 40.375 62.9 46.8499 54.925 46.8499H25C17.025 46.8499 10.55 40.375 10.55 32.4C10.55 24.425 17.025 17.95 25 17.95H54.925Z" fill="url(#paint1_linear_250_8042)"/>
<path d="M54.925 15H25C13.95 15 5 23.285 5 33.515C5 43.745 13.95 52.03 25 52.03H54.925C65.975 52.03 74.925 43.745 74.925 33.515C74.925 23.285 65.975 15 54.925 15Z" fill="url(#paint2_linear_250_8042)"/>
<g filter="url(#filter0_f_250_8042)">
<path d="M54.4199 15.47H25.0324C14.1824 15.47 5.38989 23.755 5.38989 33.985C5.38989 44.215 14.1799 52.5 25.0324 52.5H54.4199C65.2724 52.5 74.0624 44.215 74.0624 33.985C74.0624 23.755 65.2724 15.47 54.4199 15.47Z" fill="#DDDAE4"/>
</g>
<path d="M67.9299 28.515C64.7324 22.3025 60.0799 22.265 56.0549 19.49C52.0299 16.7175 51.8174 14.98 49.5249 12.1C48.3869 10.6645 46.939 9.50469 45.2896 8.70744C43.6402 7.91019 41.8319 7.49609 39.9999 7.49609C38.168 7.49609 36.3597 7.91019 34.7103 8.70744C33.0609 9.50469 31.613 10.6645 30.4749 12.1C27.6649 15.625 27.4224 18.125 24.2974 19.805C19.6924 22.28 15.2474 21.1175 12.0299 29.7275C10.4549 33.9425 10.8949 36.9525 12.0299 39.4925C15.5599 47.3725 27.1474 48.2025 40.1174 48.2025C53.0849 48.2025 58.2024 47.9275 63.5174 44.4525C69.7249 40.39 70.2949 33.115 67.9299 28.515Z" fill="url(#paint3_linear_250_8042)"/>
<path d="M67.9299 28.515C64.7324 22.3025 60.0799 22.265 56.0549 19.49C52.0299 16.7175 51.8174 14.98 49.5249 12.1C48.3869 10.6645 46.939 9.50469 45.2896 8.70744C43.6402 7.91019 41.8319 7.49609 39.9999 7.49609C38.168 7.49609 36.3597 7.91019 34.7103 8.70744C33.0609 9.50469 31.613 10.6645 30.4749 12.1C27.6649 15.625 27.4224 18.125 24.2974 19.805C19.6924 22.28 15.2474 21.1175 12.0299 29.7275C10.4549 33.9425 10.8949 36.9525 12.0299 39.4925C15.5599 47.3725 27.1474 48.2025 40.1174 48.2025C53.0849 48.2025 58.2024 47.9275 63.5174 44.4525C69.7249 40.39 70.2949 33.115 67.9299 28.515Z" fill="url(#paint4_radial_250_8042)"/>
<path d="M67.9299 28.515C64.7324 22.3025 60.0799 22.265 56.0549 19.49C52.0299 16.7175 51.8174 14.98 49.5249 12.1C48.3869 10.6645 46.939 9.50469 45.2896 8.70744C43.6402 7.91019 41.8319 7.49609 39.9999 7.49609C38.168 7.49609 36.3597 7.91019 34.7103 8.70744C33.0609 9.50469 31.613 10.6645 30.4749 12.1C27.6649 15.625 27.4224 18.125 24.2974 19.805C19.6924 22.28 15.2474 21.1175 12.0299 29.7275C10.4549 33.9425 10.8949 36.9525 12.0299 39.4925C15.5599 47.3725 27.1474 48.2025 40.1174 48.2025C53.0849 48.2025 58.2024 47.9275 63.5174 44.4525C69.7249 40.39 70.2949 33.115 67.9299 28.515Z" fill="url(#paint5_radial_250_8042)"/>
<g filter="url(#filter1_f_250_8042)">
<path d="M67.89 37.6849C66.63 35.8899 61.2025 31.7574 54.665 31.5149C47.59 31.2524 44.3425 35.3799 39.985 35.3799C36.965 35.3799 29.11 31.2649 25.345 31.5149C16.9775 32.1149 14.7175 35.1849 12.5 38.2324C14.03 42.3724 17.955 45.2699 24.5025 46.4749C30.6575 47.6074 48.8275 47.8574 54.435 46.9449C60.045 46.0299 65.635 43.5074 67.89 37.6849Z" fill="url(#paint6_linear_250_8042)"/>
</g>
<path d="M62.0899 31.8C64.0675 29.502 65.1717 26.5804 65.2083 23.5489C65.2449 20.5174 64.2115 17.57 62.2899 15.225C62.1152 15.007 61.8942 14.8307 61.6429 14.7087C61.3917 14.5868 61.1164 14.5222 60.8371 14.5198C60.5578 14.5175 60.2814 14.5772 60.0281 14.6949C59.7748 14.8125 59.5508 14.9851 59.3724 15.2L45.2674 31.6C45.0859 31.812 44.9529 32.0611 44.8777 32.3299C44.8024 32.5986 44.7867 32.8806 44.8317 33.156C44.8767 33.4314 44.9813 33.6937 45.1382 33.9246C45.295 34.1554 45.5004 34.3492 45.7399 34.4925C48.3498 36.0268 51.415 36.5977 54.4023 36.1058C57.3895 35.6138 60.1098 34.0902 62.0899 31.8Z" fill="url(#paint7_linear_250_8042)"/>
<g filter="url(#filter2_f_250_8042)">
<path d="M61.65 31.4325C63.4789 29.2425 64.4961 26.4885 64.5298 23.6354C64.5635 20.7824 63.6117 18.0051 61.835 15.7725C61.145 14.9 60.2925 15.065 59.58 15.9375L46.5525 31.4325C45.84 32.2825 45.61 33.3875 46.5525 33.975C48.9584 35.4242 51.8034 35.9645 54.5731 35.4981C57.3427 35.0318 59.8514 33.5896 61.65 31.4325Z" fill="url(#paint8_linear_250_8042)"/>
</g>
<g filter="url(#filter3_f_250_8042)">
<path d="M53.7149 22.26C53.9642 22.4668 54.2839 22.5687 54.6068 22.5444C54.9298 22.5202 55.2307 22.3715 55.4462 22.1297C55.6616 21.888 55.7749 21.5721 55.7621 21.2485C55.7493 20.9249 55.6114 20.6189 55.3774 20.395L53.7149 22.26ZM41.5774 8.78998C41.4172 8.74486 41.2496 8.73218 41.0844 8.7527C40.9192 8.77322 40.7598 8.82652 40.6155 8.90948C40.4712 8.99243 40.3449 9.10337 40.2441 9.23579C40.1432 9.36821 40.0699 9.51943 40.0282 9.68059C39.9866 9.84175 39.9776 10.0096 40.0017 10.1743C40.0258 10.339 40.0826 10.4972 40.1687 10.6397C40.2548 10.7821 40.3684 10.9059 40.503 11.0039C40.6376 11.1018 40.7904 11.1719 40.9524 11.21L41.5774 8.78998ZM55.3774 20.395C53.4499 18.6725 51.9024 17.5025 49.2774 13.8075L47.2374 15.255C50.0449 19.205 51.7924 20.545 53.7149 22.26L55.3774 20.395ZM49.2774 13.8075C47.1174 10.7675 43.5324 9.29248 41.5774 8.78998L40.9524 11.21C42.6449 11.645 45.5674 12.9025 47.2374 15.255L49.2774 13.8075Z" fill="url(#paint9_radial_250_8042)"/>
</g>
<path d="M57.6825 27.8575C60.1825 24.9575 59.8575 20.5825 56.9575 18.0825L47.9075 28.5825C50.8075 31.1075 55.1825 30.7575 57.6825 27.8575Z" fill="url(#paint10_linear_250_8042)"/>
<path d="M68.4375 38.4374C67.1475 36.6399 61.605 32.5074 54.9225 32.2649C47.69 32.0024 44.375 36.1324 39.9225 36.1324C36.835 36.1324 28.81 32.0149 24.96 32.2649C16.41 32.8649 14.1025 35.9374 11.835 38.9849C13.3975 43.1249 17.41 46.0224 24.1025 47.2274C30.39 48.3599 48.955 48.6074 54.6875 47.6949C60.42 46.7824 66.1325 44.2574 68.4375 38.4374Z" fill="url(#paint11_linear_250_8042)"/>
<g filter="url(#filter4_f_250_8042)">
<path d="M32.1875 37.1875C33.9575 37.97 37.735 39.22 42.5775 39.22C47.4225 39.22 48.75 35.235 55.7825 35.545C61.4075 35.795 65.7825 38.645 66.5625 39.845" stroke="url(#paint12_radial_250_8042)" stroke-width="0.4375" stroke-linecap="round"/>
</g>
<g filter="url(#filter5_f_250_8042)">
<path d="M32.68 47.2625C33.8602 47.2625 34.9921 46.7937 35.8266 45.9592C36.6611 45.1246 37.13 43.9928 37.13 42.8125C37.13 41.6323 36.6611 40.5005 35.8266 39.6659C34.9921 38.8314 33.8602 38.3625 32.68 38.3625C31.4998 38.3625 30.3679 38.8314 29.5334 39.6659C28.6988 40.5005 28.23 41.6323 28.23 42.8125C28.23 43.9928 28.6988 45.1246 29.5334 45.9592C30.3679 46.7937 31.4998 47.2625 32.68 47.2625Z" fill="#447437"/>
</g>
<path d="M22.2151 41.33C28.0401 43.905 34.7651 41.855 38.1901 36.73C38.8401 35.755 38.4651 34.405 37.3901 33.905L17.5651 25.13C16.4651 24.63 15.2151 25.255 14.9151 26.405C13.4401 32.38 16.3901 38.755 22.2151 41.33Z" fill="url(#paint13_linear_250_8042)"/>
<g filter="url(#filter6_f_250_8042)">
<path d="M22.6926 40.4876C25.1643 41.5839 27.9431 41.7749 30.5415 41.027C33.1399 40.2791 35.392 38.6401 36.9026 36.3976C37.4801 35.5301 36.8951 34.7426 35.9376 34.2976L18.3026 26.4901C17.3226 26.0451 16.4651 26.1901 16.1976 27.2126C14.8851 32.5276 17.5101 38.1976 22.6926 40.4876Z" fill="#CF336F"/>
<path d="M22.6926 40.4876C25.1643 41.5839 27.9431 41.7749 30.5415 41.027C33.1399 40.2791 35.392 38.6401 36.9026 36.3976C37.4801 35.5301 36.8951 34.7426 35.9376 34.2976L18.3026 26.4901C17.3226 26.0451 16.4651 26.1901 16.1976 27.2126C14.8851 32.5276 17.5101 38.1976 22.6926 40.4876Z" fill="url(#paint14_radial_250_8042)"/>
</g>
<path d="M24.6499 36.0651C26.3795 36.8327 28.3431 36.8821 30.1091 36.2023C31.8751 35.5225 33.2988 34.1693 34.0674 32.4401L21.0224 26.6501C20.2558 28.3798 20.2072 30.3431 20.8874 32.1085C21.5676 33.8739 22.9209 35.297 24.6499 36.0651Z" fill="url(#paint15_linear_250_8042)"/>
<g filter="url(#filter7_f_250_8042)">
<path d="M34.4001 30C37.3876 30 40.9126 27.165 40.9126 24.175C40.9126 21.185 38.4876 18.76 35.4976 18.76C32.5076 18.76 28.9851 22.3575 28.9851 25.3475C28.9851 28.3375 31.4101 30 34.3976 30H34.4001Z" fill="#346433"/>
</g>
<path d="M36.55 27.7099C37.7654 27.7099 38.931 27.2271 39.7903 26.3677C40.6497 25.5084 41.1325 24.3428 41.1325 23.1274C41.1325 21.9121 40.6497 20.7465 39.7903 19.8871C38.931 19.0277 37.7654 18.5449 36.55 18.5449C35.3347 18.5449 34.1691 19.0277 33.3097 19.8871C32.4503 20.7465 31.9675 21.9121 31.9675 23.1274C31.9675 24.3428 32.4503 25.5084 33.3097 26.3677C34.1691 27.2271 35.3347 27.7099 36.55 27.7099Z" fill="url(#paint16_radial_250_8042)"/>
<path d="M33.7925 46.5999C34.3769 46.5999 34.9556 46.4848 35.4955 46.2612C36.0354 46.0376 36.5259 45.7098 36.9392 45.2966C37.3524 44.8834 37.6802 44.3928 37.9038 43.8529C38.1274 43.313 38.2425 42.7343 38.2425 42.15C38.2425 41.5656 38.1274 40.9869 37.9038 40.447C37.6802 39.9071 37.3524 39.4165 36.9392 39.0033C36.5259 38.5901 36.0354 38.2623 35.4955 38.0387C34.9556 37.8151 34.3769 37.7 33.7925 37.7C32.6123 37.7 31.4804 38.1688 30.6459 39.0033C29.8114 39.8379 29.3425 40.9697 29.3425 42.15C29.3425 43.3302 29.8114 44.462 30.6459 45.2966C31.4804 46.1311 32.6123 46.5999 33.7925 46.5999Z" fill="url(#paint17_radial_250_8042)"/>
<g filter="url(#filter8_f_250_8042)">
<path d="M58.0475 42.8125C60.5725 42.8125 63.6975 40.395 63.6975 37.8675C63.6975 35.3425 61.6475 33.2925 59.1225 33.2925C56.595 33.2925 53.5925 36.145 53.5925 38.6725C53.5925 41.1975 55.52 42.8125 58.0475 42.8125Z" fill="#588D2F"/>
</g>
<path d="M60.4251 41.4549C61.0259 41.4549 61.6208 41.3366 62.1759 41.1067C62.7309 40.8768 63.2353 40.5398 63.6601 40.1149C64.0849 39.6901 64.4219 39.1858 64.6518 38.6307C64.8818 38.0756 65.0001 37.4807 65.0001 36.8799C65.0001 36.2791 64.8818 35.6842 64.6518 35.1292C64.4219 34.5741 64.0849 34.0697 63.6601 33.6449C63.2353 33.2201 62.7309 32.8831 62.1759 32.6532C61.6208 32.4233 61.0259 32.3049 60.4251 32.3049C59.2117 32.3049 58.0481 32.7869 57.1901 33.6449C56.3321 34.5029 55.8501 35.6666 55.8501 36.8799C55.8501 38.0933 56.3321 39.257 57.1901 40.1149C58.0481 40.9729 59.2117 41.4549 60.4251 41.4549Z" fill="url(#paint18_radial_250_8042)"/>
<defs>
<filter id="filter0_f_250_8042" x="5.17114" y="15.2512" width="69.1101" height="37.4675" filterUnits="userSpaceOnUse" color-interpolation-filters="sRGB">
<feFlood flood-opacity="0" result="BackgroundImageFix"/>
<feBlend mode="normal" in="SourceGraphic" in2="BackgroundImageFix" result="shape"/>
<feGaussianBlur stdDeviation="0.109375" result="effect1_foregroundBlur_250_8042"/>
</filter>
<filter id="filter1_f_250_8042" x="12.0625" y="31.0654" width="56.2649" height="16.8726" filterUnits="userSpaceOnUse" color-interpolation-filters="sRGB">
<feFlood flood-opacity="0" result="BackgroundImageFix"/>
<feBlend mode="normal" in="SourceGraphic" in2="BackgroundImageFix" result="shape"/>
<feGaussianBlur stdDeviation="0.21875" result="effect1_foregroundBlur_250_8042"/>
</filter>
<filter id="filter2_f_250_8042" x="45.8196" y="15.0854" width="18.8206" height="20.6853" filterUnits="userSpaceOnUse" color-interpolation-filters="sRGB">
<feFlood flood-opacity="0" result="BackgroundImageFix"/>
<feBlend mode="normal" in="SourceGraphic" in2="BackgroundImageFix" result="shape"/>
<feGaussianBlur stdDeviation="0.0546875" result="effect1_foregroundBlur_250_8042"/>
</filter>
<filter id="filter3_f_250_8042" x="39.7698" y="8.52441" width="16.2122" height="14.2422" filterUnits="userSpaceOnUse" color-interpolation-filters="sRGB">
<feFlood flood-opacity="0" result="BackgroundImageFix"/>
<feBlend mode="normal" in="SourceGraphic" in2="BackgroundImageFix" result="shape"/>
<feGaussianBlur stdDeviation="0.109375" result="effect1_foregroundBlur_250_8042"/>
</filter>
<filter id="filter4_f_250_8042" x="31.75" y="35.0903" width="35.25" height="5.19214" filterUnits="userSpaceOnUse" color-interpolation-filters="sRGB">
<feFlood flood-opacity="0" result="BackgroundImageFix"/>
<feBlend mode="normal" in="SourceGraphic" in2="BackgroundImageFix" result="shape"/>
<feGaussianBlur stdDeviation="0.109375" result="effect1_foregroundBlur_250_8042"/>
</filter>
<filter id="filter5_f_250_8042" x="27.7925" y="37.925" width="9.7749" height="9.7749" filterUnits="userSpaceOnUse" color-interpolation-filters="sRGB">
<feFlood flood-opacity="0" result="BackgroundImageFix"/>
<feBlend mode="normal" in="SourceGraphic" in2="BackgroundImageFix" result="shape"/>
<feGaussianBlur stdDeviation="0.21875" result="effect1_foregroundBlur_250_8042"/>
</filter>
<filter id="filter6_f_250_8042" x="15.7534" y="26.1426" width="21.4878" height="15.4429" filterUnits="userSpaceOnUse" color-interpolation-filters="sRGB">
<feFlood flood-opacity="0" result="BackgroundImageFix"/>
<feBlend mode="normal" in="SourceGraphic" in2="BackgroundImageFix" result="shape"/>
<feGaussianBlur stdDeviation="0.0546875" result="effect1_foregroundBlur_250_8042"/>
</filter>
<filter id="filter7_f_250_8042" x="28.5476" y="18.3225" width="12.8025" height="12.115" filterUnits="userSpaceOnUse" color-interpolation-filters="sRGB">
<feFlood flood-opacity="0" result="BackgroundImageFix"/>
<feBlend mode="normal" in="SourceGraphic" in2="BackgroundImageFix" result="shape"/>
<feGaussianBlur stdDeviation="0.21875" result="effect1_foregroundBlur_250_8042"/>
</filter>
<filter id="filter8_f_250_8042" x="53.3738" y="33.0737" width="10.5425" height="9.95752" filterUnits="userSpaceOnUse" color-interpolation-filters="sRGB">
<feFlood flood-opacity="0" result="BackgroundImageFix"/>
<feBlend mode="normal" in="SourceGraphic" in2="BackgroundImageFix" result="shape"/>
<feGaussianBlur stdDeviation="0.109375" result="effect1_foregroundBlur_250_8042"/>
</filter>
<linearGradient id="paint0_linear_250_8042" x1="5" y1="50.3126" x2="74.925" y2="50.3126" gradientUnits="userSpaceOnUse">
<stop stop-color="#BBBAC0"/>
<stop offset="0.125" stop-color="#BCB5C9"/>
<stop offset="0.264" stop-color="#BDB2CD"/>
<stop offset="0.509" stop-color="#BBADCD"/>
<stop offset="0.751" stop-color="#BAADCC"/>
<stop offset="0.831" stop-color="#BFB5CE"/>
<stop offset="1" stop-color="#D8D7DE"/>
</linearGradient>
<linearGradient id="paint1_linear_250_8042" x1="10.54" y1="32.4025" x2="69.385" y2="32.4025" gradientUnits="userSpaceOnUse">
<stop stop-color="#5E669C"/>
<stop offset="1" stop-color="#513468"/>
</linearGradient>
<linearGradient id="paint2_linear_250_8042" x1="5" y1="28.75" x2="73.595" y2="28.75" gradientUnits="userSpaceOnUse">
<stop stop-color="#B5B5BA"/>
<stop offset="1" stop-color="#F5F6FB"/>
</linearGradient>
<linearGradient id="paint3_linear_250_8042" x1="11.0074" y1="23.75" x2="71.5624" y2="23.75" gradientUnits="userSpaceOnUse">
<stop stop-color="#1A4A2D"/>
<stop offset="0.319" stop-color="#437943"/>
<stop offset="0.536" stop-color="#5C9248"/>
<stop offset="0.85" stop-color="#5F9231"/>
<stop offset="0.954" stop-color="#3C8511"/>
</linearGradient>
<radialGradient id="paint4_radial_250_8042" cx="0" cy="0" r="1" gradientUnits="userSpaceOnUse" gradientTransform="translate(61.7199 7.50004) rotate(127.789) scale(27.2848 23.9765)">
<stop stop-color="#5E9B4B"/>
<stop offset="1" stop-color="#67A257" stop-opacity="0"/>
</radialGradient>
<radialGradient id="paint5_radial_250_8042" cx="0" cy="0" r="1" gradientUnits="userSpaceOnUse" gradientTransform="translate(40.1124 38.9075) rotate(90) scale(9.29688 35.426)">
<stop stop-color="#306420"/>
<stop offset="1" stop-color="#396929" stop-opacity="0"/>
</radialGradient>
<linearGradient id="paint6_linear_250_8042" x1="13.6075" y1="37.3449" x2="67.89" y2="37.3449" gradientUnits="userSpaceOnUse">
<stop stop-color="#154428"/>
<stop offset="0.513" stop-color="#376728"/>
<stop offset="1" stop-color="#3B830F"/>
</linearGradient>
<linearGradient id="paint7_linear_250_8042" x1="61.5624" y1="24.375" x2="55.0074" y2="19.0625" gradientUnits="userSpaceOnUse">
<stop stop-color="#F05879"/>
<stop offset="1" stop-color="#9B2938"/>
</linearGradient>
<linearGradient id="paint8_linear_250_8042" x1="62.4625" y1="17.625" x2="46.6475" y2="34.095" gradientUnits="userSpaceOnUse">
<stop stop-color="#D7355D"/>
<stop offset="0.428" stop-color="#D13464"/>
<stop offset="0.831" stop-color="#BB3463"/>
<stop offset="1" stop-color="#A82B5B"/>
</linearGradient>
<radialGradient id="paint9_radial_250_8042" cx="0" cy="0" r="1" gradientUnits="userSpaceOnUse" gradientTransform="translate(48.6099 15.665) rotate(180) scale(9.375 10.9914)">
<stop stop-color="#86B76D"/>
<stop offset="1" stop-color="#87BB71" stop-opacity="0"/>
</radialGradient>
<linearGradient id="paint10_linear_250_8042" x1="52.1875" y1="22.8125" x2="57.6575" y2="27.5" gradientUnits="userSpaceOnUse">
<stop offset="0.056" stop-color="#962239"/>
<stop offset="0.313" stop-color="#AE3153"/>
</linearGradient>
<linearGradient id="paint11_linear_250_8042" x1="11.835" y1="41.8749" x2="68.4375" y2="41.8749" gradientUnits="userSpaceOnUse">
<stop stop-color="#4B7740"/>
<stop offset="0.696" stop-color="#66933A"/>
</linearGradient>
<radialGradient id="paint12_radial_250_8042" cx="0" cy="0" r="1" gradientUnits="userSpaceOnUse" gradientTransform="translate(61.72 37.805) rotate(127.618) scale(16.3828 76.906)">
<stop stop-color="#91BA60"/>
<stop offset="0.272" stop-color="#74A048"/>
<stop offset="1" stop-color="#709D4A" stop-opacity="0"/>
</radialGradient>
<linearGradient id="paint13_linear_250_8042" x1="20.5476" y1="40.39" x2="25.8601" y2="29.14" gradientUnits="userSpaceOnUse">
<stop offset="0.873" stop-color="#AB2C59"/>
<stop offset="1" stop-color="#E0427A"/>
</linearGradient>
<radialGradient id="paint14_radial_250_8042" cx="0" cy="0" r="1" gradientUnits="userSpaceOnUse" gradientTransform="translate(33.1251 41.8751) rotate(172.875) scale(5.03891 5.57593)">
<stop offset="0.66" stop-color="#AD1A46"/>
<stop offset="0.885" stop-color="#AE1A49" stop-opacity="0"/>
</radialGradient>
<linearGradient id="paint15_linear_250_8042" x1="27.2374" y1="29.5326" x2="24.6099" y2="36.0151" gradientUnits="userSpaceOnUse">
<stop stop-color="#C34765"/>
<stop offset="0.176" stop-color="#B03256"/>
</linearGradient>
<radialGradient id="paint16_radial_250_8042" cx="0" cy="0" r="1" gradientUnits="userSpaceOnUse" gradientTransform="translate(39.3745 21.0972) rotate(135.764) scale(8.28715)">
<stop offset="0.142" stop-color="#FFEC56"/>
<stop offset="0.502" stop-color="#F5D03B"/>
<stop offset="1" stop-color="#AC831E"/>
</radialGradient>
<radialGradient id="paint17_radial_250_8042" cx="0" cy="0" r="1" gradientUnits="userSpaceOnUse" gradientTransform="translate(36.5381 40.175) rotate(135.764) scale(8.04847)">
<stop offset="0.142" stop-color="#FFDB57"/>
<stop offset="0.502" stop-color="#F3C046"/>
<stop offset="1" stop-color="#BA8544"/>
</radialGradient>
<radialGradient id="paint18_radial_250_8042" cx="0" cy="0" r="1" gradientUnits="userSpaceOnUse" gradientTransform="translate(63.2426 34.8467) rotate(135.764) scale(8.27293)">
<stop offset="0.142" stop-color="#FFE75C"/>
<stop offset="0.502" stop-color="#ECBF40"/>
<stop offset="1" stop-color="#B28433"/>
</radialGradient>
</defs>
</svg>
