<svg width="34" height="34" viewBox="0 0 34 34" fill="none" xmlns="http://www.w3.org/2000/svg">
<path d="M4 7H6.44444L7.05556 10.6667M7.05556 10.6667L8.88889 21.6667H22.3333L26 10.6667H7.05556Z" stroke="black" stroke-width="2" stroke-linecap="round" stroke-linejoin="round"/>
<path d="M10.1111 29.0001C10.7862 29.0001 11.3334 28.4529 11.3334 27.7779C11.3334 27.1029 10.7862 26.5557 10.1111 26.5557C9.43612 26.5557 8.88892 27.1029 8.88892 27.7779C8.88892 28.4529 9.43612 29.0001 10.1111 29.0001Z" stroke="black" stroke-width="2" stroke-linecap="round" stroke-linejoin="round"/>
<path d="M21.1111 29.0001C21.7862 29.0001 22.3334 28.4529 22.3334 27.7779C22.3334 27.1029 21.7862 26.5557 21.1111 26.5557C20.4361 26.5557 19.8889 27.1029 19.8889 27.7779C19.8889 28.4529 20.4361 29.0001 21.1111 29.0001Z" stroke="black" stroke-width="2" stroke-linecap="round" stroke-linejoin="round"/>
<rect x="17" y="1" width="16" height="16" rx="8" fill="#E7282A"/>
<path d="M25.6035 13.5H24.1289V7.82617H24.0898L22.4688 8.8418V7.54297L24.2168 6.42969H25.6035V13.5Z" fill="white"/>
<rect x="17" y="1" width="16" height="16" rx="8" stroke="white" stroke-width="2"/>
</svg>
