<svg width="80" height="80" viewBox="0 0 80 80" fill="none" xmlns="http://www.w3.org/2000/svg">
<path d="M28.9711 77.3689C1.76439 73.3623 2.22216 46.0423 2.22216 37.7778H77.7777C77.7777 42.0312 77.9711 72.8223 48.6111 77.5956C44.0733 78.3334 34.2599 78.1489 28.9711 77.3689Z" fill="#292F33"/>
<path d="M74.1955 29.4378C79.6778 17.0511 55.6822 17.7622 49.6733 19.7C46.4625 19.3251 43.2326 19.1367 40 19.1356C19.1356 19.1356 2.22222 26.3089 2.22222 37.9C2.22222 40.1422 2.86889 42.2978 4.04 44.3245C-5.57556 57.0178 13.4756 59.4045 24.4489 57.0134C29.1956 58.2067 34.4489 58.8889 40 58.8889C60.8644 58.8889 77.7778 49.4911 77.7778 37.9022C77.7778 34.7245 76.4689 31.8933 74.1955 29.4378Z" fill="#66757F"/>
<path d="M40.0001 55.5554C58.4096 55.5554 73.3334 48.591 73.3334 39.9999C73.3334 31.4088 58.4096 24.4443 40.0001 24.4443C21.5906 24.4443 6.66675 31.4088 6.66675 39.9999C6.66675 48.591 21.5906 55.5554 40.0001 55.5554Z" fill="#FFCC4D"/>
<path d="M8.88896 35.5556C7.68452 30.7356 13.3334 22.2222 24.4445 24.4444C26.6667 22.2222 30.7512 20 37.7779 20C42.2223 20 50.249 23.9444 46.6667 31.1111C44.4445 35.5556 35.5556 42.2222 24.4445 37.7778C22.2223 40 11.1112 44.4444 8.88896 35.5556Z" fill="#77B255"/>
<path d="M26.6666 37.7778C26.1132 37.8578 25.6199 37.94 25.1599 38.0245C35.9332 41.9045 44.4932 35.4578 46.6666 31.1111C49.0621 26.32 46.2644 22.9778 42.8199 21.2822C43.6955 25.3311 40.3132 35.8289 26.6666 37.7778Z" fill="#5C913B"/>
<path d="M11.1112 35.5556C12.2779 32.6378 22.2223 28.8889 33.3334 42.2223C35.5557 44.4445 43.5246 45.7467 46.6668 48.8889C48.889 51.1112 46.6668 53.3334 37.7779 53.3334C28.889 53.3334 6.66678 46.6667 11.1112 35.5556Z" fill="#D99E82"/>
<path d="M13.4246 44.4844C19.0868 50.1355 31.6246 53.3333 37.7779 53.3333C46.6668 53.3333 48.889 51.111 46.6668 48.8888C45.9423 48.1644 44.9557 47.5399 43.849 46.9777C36.729 50.8288 17.8934 46.6577 13.4246 44.4844Z" fill="#B27962"/>
<path d="M60 42.2244C59.5355 42.2244 59.06 42.1488 58.5933 41.9933L51.9267 39.771C50.8083 39.3983 49.8839 38.5965 49.3567 37.5421C48.8295 36.4878 48.7428 35.2672 49.1155 34.1488C49.4883 33.0305 50.2901 32.1061 51.3445 31.5789C52.3988 31.0517 53.6194 30.9649 54.7378 31.3377L61.4044 33.5599C62.4082 33.8916 63.2609 34.5703 63.8094 35.4741C64.3579 36.3778 64.5663 37.4475 64.3971 38.4911C64.228 39.5346 63.6924 40.4837 62.8865 41.168C62.0806 41.8522 61.0572 42.2267 60 42.2244ZM57.7778 48.8888H53.3333C52.744 48.8888 52.1787 48.6547 51.762 48.238C51.3452 47.8212 51.1111 47.256 51.1111 46.6666C51.1111 46.0772 51.3452 45.512 51.762 45.0953C52.1787 44.6785 52.744 44.4444 53.3333 44.4444H57.7778C58.3671 44.4444 58.9324 44.6785 59.3491 45.0953C59.7659 45.512 60 46.0772 60 46.6666C60 47.256 59.7659 47.8212 59.3491 48.238C58.9324 48.6547 58.3671 48.8888 57.7778 48.8888Z" fill="#FFE8B6"/>
</svg>
