<svg width="56" height="56" viewBox="0 0 56 56" fill="none" xmlns="http://www.w3.org/2000/svg">
<rect x="21.114" y="36.7557" width="13.6907" height="6.66181" rx="1" fill="url(#paint0_linear_556_29252)" stroke="#333333" stroke-width="1.5"/>
<path d="M14.1221 23.1322C12.3989 25.0741 13.63 27.4868 14.1221 29.2507C22.4876 29.9671 39.342 30.4253 41.7283 28.4236C43.1025 27.2709 42.8982 24.3589 41.7283 23.4904C42.183 21.6512 41.2634 19.8632 39.7818 19.4034C39.5456 17.0223 37.6842 16.0439 36.7492 15.9888C35.797 13.4631 33.3958 13.1194 31.6588 13.4631C30.1881 12.0466 27.0099 12.5578 25.886 13.4631C23.7404 12.2001 20.675 14.1926 20.3225 15.5254C17.8652 15.2654 15.8937 17.3088 15.8937 18.6675C13.8293 19.8121 14.1221 21.6512 14.1221 23.1322Z" fill="white" stroke="#333333" stroke-width="1.5" stroke-linecap="round"/>
<path d="M11.7683 27.0989C11.7683 26.4135 12.3239 25.8579 13.0093 25.8579H42.9907C43.6761 25.8579 44.2317 26.4135 44.2317 27.0989V27.0989C44.2317 33.9525 38.6757 39.5085 31.8221 39.5085H24.1779C17.3243 39.5085 11.7683 33.9525 11.7683 27.0989V27.0989Z" fill="url(#paint1_linear_556_29252)" stroke="#333333" stroke-width="1.5"/>
<path d="M18.9396 22.5998C19.0799 22.1476 19.6674 21.2632 20.8947 21.3431" stroke="#333333" stroke-width="1.5" stroke-linecap="round"/>
<path d="M23.8113 18.1267C24.0476 17.7164 24.815 16.9826 25.9947 17.3301" stroke="#333333" stroke-width="1.5" stroke-linecap="round"/>
<path d="M25.8676 22.7214C26.0791 22.2978 26.8017 21.5198 28 21.7968" stroke="#333333" stroke-width="1.5" stroke-linecap="round"/>
<path d="M24.8284 30.1666C24.855 29.9956 24.8766 29.8567 24.8932 29.7498C24.9165 29.6302 24.9332 29.5534 24.9433 29.5193C24.9534 29.4852 24.9821 29.4538 25.0296 29.4251C25.0736 29.3876 25.1312 29.3549 25.2024 29.3268C25.3143 29.2826 25.4856 29.2552 25.7165 29.2444C25.9235 29.2329 26.0577 29.2452 26.1189 29.2813C26.1938 29.322 26.257 29.4375 26.3085 29.6279C26.3601 29.8182 26.3657 29.9665 26.3254 30.0727L26.3101 30.0788C26.2699 30.2451 26.2148 30.5076 26.1447 30.8664C26.0445 31.3273 25.9642 31.6901 25.904 31.9546C25.8171 32.3301 25.7823 32.5846 25.7997 32.7182C25.8139 32.9032 25.7912 33.2032 25.7315 33.618C25.7116 33.7463 25.6983 33.8468 25.6918 33.9196C25.6954 33.9884 25.7024 34.0358 25.7127 34.0619C25.7298 34.1053 25.7222 34.3541 25.6898 34.8084C25.6472 35.2666 25.6448 35.5435 25.6824 35.639C25.7098 35.7085 25.6677 35.7953 25.556 35.8996L25.5612 35.9126C25.5172 35.95 25.4663 35.9851 25.4087 36.0179C25.3613 36.0466 25.2952 36.0727 25.2104 36.0961C25.1358 36.1155 25.0526 36.1283 24.961 36.1343C24.8931 36.141 24.8286 36.1414 24.7675 36.1354C24.7097 36.1381 24.6554 36.1345 24.6044 36.1245C24.5535 36.1145 24.5076 36.1025 24.4668 36.0885C24.4362 36.0704 24.409 36.0461 24.3851 36.0153C24.3101 35.9446 24.2602 35.7435 24.2353 35.4122C24.207 35.0722 24.216 34.7376 24.2624 34.4082C24.2656 34.3568 24.2655 34.3117 24.262 34.273C24.2652 34.2215 24.265 34.1764 24.2615 34.1377C24.2647 34.0863 24.2646 34.0412 24.261 34.0024C24.2677 33.9597 24.2709 33.9233 24.2708 33.8932C24.2673 33.8545 24.2604 33.8221 24.2501 33.796C24.2224 33.6364 24.2423 33.4931 24.3098 33.3662C24.3738 33.2305 24.3836 33.1063 24.339 32.9934C24.3356 32.9847 24.3338 32.9654 24.3337 32.9353C24.3302 32.8966 24.3301 32.8515 24.3333 32.8C24.3365 32.7486 24.3431 32.6908 24.3531 32.6267C24.3596 32.5539 24.3695 32.4747 24.3828 32.3892C24.3927 32.295 24.4008 32.1965 24.4072 32.0936C24.4903 31.5592 24.5705 31.1964 24.6479 31.0054C24.7321 30.8016 24.7923 30.522 24.8284 30.1666Z" fill="#333333"/>
<path d="M25.0543 30.4722C24.7658 30.4859 24.6008 30.5114 24.5591 30.5487C24.5288 30.5759 24.3673 30.6837 24.2614 30.6112L24.1781 30.5589C24.1385 30.53 24.135 30.5321 24.0928 30.4926C24.0569 30.4603 24.0186 30.4506 23.9712 30.39C23.9302 30.3366 23.8485 30.2088 23.8087 30.1415C23.7778 30.0918 23.7541 29.9882 23.7335 29.9423C23.7091 29.8998 23.7518 29.8313 23.7375 29.7925C23.7299 29.7718 23.8108 29.6519 23.8226 29.6239C23.8349 29.5613 23.9343 29.5045 24.1208 29.4533C24.3111 29.3988 24.513 29.3725 24.7265 29.3744C24.7583 29.3717 24.785 29.3671 24.8065 29.3607C24.8383 29.358 24.8649 29.3535 24.8865 29.347C24.9183 29.3443 24.9449 29.3398 24.9665 29.3333C24.9944 29.334 25.0173 29.3329 25.0351 29.3298C25.0567 29.3234 25.0731 29.3151 25.0845 29.3049C25.9855 28.9139 26.8394 30.3407 25.0543 30.4722Z" fill="#333333"/>
<path d="M30.2356 30.174C30.3234 30.0247 30.3948 29.9033 30.4497 29.81C30.5156 29.7073 30.5596 29.642 30.5816 29.614C30.6035 29.586 30.642 29.5673 30.6969 29.558C30.7518 29.5393 30.8177 29.53 30.8946 29.53C31.0154 29.53 31.1857 29.5673 31.4054 29.642C31.6031 29.7073 31.7239 29.768 31.7678 29.824C31.8227 29.8893 31.8392 30.02 31.8173 30.216C31.7953 30.412 31.7459 30.552 31.669 30.636H31.6525C31.5536 30.776 31.4054 31 31.2076 31.308C30.944 31.7 30.7353 32.008 30.5816 32.232C30.3619 32.5493 30.2356 32.7733 30.2026 32.904C30.1477 33.0813 30.0159 33.352 29.8072 33.716C29.7413 33.828 29.6918 33.9167 29.6589 33.982C29.6369 34.0473 29.6259 34.094 29.6259 34.122C29.6259 34.1687 29.5271 34.3973 29.3294 34.808C29.1207 35.2187 29.0163 35.4753 29.0163 35.578C29.0163 35.6527 28.9449 35.718 28.8021 35.774V35.788C28.7472 35.8067 28.6868 35.8207 28.6209 35.83C28.566 35.8393 28.4946 35.8393 28.4067 35.83C28.3298 35.8207 28.2475 35.802 28.1596 35.774C28.0937 35.7553 28.0333 35.732 27.9783 35.704C27.9234 35.6853 27.874 35.662 27.8301 35.634C27.7861 35.606 27.7477 35.578 27.7147 35.55C27.6928 35.522 27.6763 35.4893 27.6653 35.452C27.6214 35.3587 27.6488 35.1533 27.7477 34.836C27.8465 34.5093 27.9783 34.2013 28.1431 33.912C28.1651 33.8653 28.1815 33.8233 28.1925 33.786C28.2145 33.7393 28.231 33.6973 28.242 33.66C28.2639 33.6133 28.2804 33.5713 28.2914 33.534C28.3134 33.4967 28.3298 33.464 28.3408 33.436C28.3518 33.3987 28.3573 33.366 28.3573 33.338C28.3902 33.1793 28.4616 33.0533 28.5715 32.96C28.6813 32.8573 28.7362 32.7453 28.7362 32.624C28.7362 32.6147 28.7417 32.596 28.7527 32.568C28.7637 32.5307 28.7802 32.4887 28.8021 32.442C28.8241 32.3953 28.8516 32.344 28.8845 32.288C28.9175 32.2227 28.9559 32.1527 28.9999 32.078C29.0438 31.994 29.0877 31.9053 29.1317 31.812C29.4063 31.3453 29.615 31.0373 29.7578 30.888C29.9115 30.7293 30.0708 30.4913 30.2356 30.174Z" fill="#333333"/>
<path d="M30.0402 32.7546C29.9476 32.6475 29.8724 32.5605 29.8145 32.4936C29.7516 32.414 29.7118 32.3612 29.6951 32.3352C29.6784 32.3092 29.6703 32.2661 29.6707 32.2059C29.6647 32.145 29.6665 32.073 29.6762 31.9899C29.6915 31.8592 29.7388 31.6782 29.8184 31.4466C29.8886 31.2381 29.946 31.1124 29.9904 31.0694C30.0427 31.0153 30.1355 31.0081 30.2688 31.0477C30.4021 31.0873 30.493 31.1521 30.5416 31.242L30.5396 31.2599C30.6243 31.3781 30.7611 31.5565 30.95 31.7953C31.1889 32.112 31.3764 32.3626 31.5125 32.547C31.7051 32.8103 31.8447 32.965 31.9313 33.0112C32.0474 33.0849 32.2187 33.2494 32.4451 33.5045C32.5145 33.5848 32.5699 33.6454 32.6111 33.6864C32.6537 33.7154 32.6847 33.7311 32.7041 33.7333C32.7365 33.7371 32.8828 33.8625 33.1429 34.1095C33.4017 34.3684 33.5667 34.502 33.638 34.5103C33.6899 34.5164 33.7262 34.5989 33.7471 34.7578L33.7568 34.7589C33.7628 34.8198 33.7649 34.8863 33.7631 34.9583C33.7627 35.0185 33.7537 35.0957 33.7361 35.1899C33.7199 35.2723 33.6966 35.3599 33.6661 35.4526C33.6448 35.5224 33.621 35.5858 33.5946 35.6429C33.5748 35.7008 33.5523 35.7524 33.5274 35.7976C33.5024 35.8429 33.4781 35.8822 33.4545 35.9155C33.4323 35.937 33.4075 35.9522 33.3802 35.9611C33.3099 36.001 33.1708 35.9547 32.963 35.8221C32.7487 35.6888 32.5515 35.5213 32.3714 35.3198C32.3418 35.2922 32.3147 35.271 32.2902 35.2561C32.2605 35.2286 32.2334 35.2074 32.2089 35.1925C32.1793 35.1649 32.1522 35.1437 32.1277 35.1288C32.1045 35.1021 32.0839 35.0816 32.0659 35.0674C32.0413 35.0525 32.0194 35.044 31.9999 35.0417C31.8939 34.9932 31.8155 34.9058 31.7645 34.7795C31.7071 34.6524 31.6363 34.584 31.552 34.5742C31.5455 34.5734 31.5333 34.5659 31.5152 34.5518C31.4907 34.5369 31.4636 34.5157 31.434 34.4882C31.4044 34.4606 31.3722 34.4268 31.3375 34.3866C31.2963 34.3457 31.2525 34.2985 31.2062 34.2449C31.1534 34.1906 31.0974 34.1359 31.0382 34.0809C30.7488 33.7462 30.5613 33.4956 30.4757 33.3291C30.3849 33.15 30.2397 32.9585 30.0402 32.7546Z" fill="#333333"/>
<defs>
<linearGradient id="paint0_linear_556_29252" x1="27.9594" y1="36.7557" x2="27.9594" y2="43.4175" gradientUnits="userSpaceOnUse">
<stop stop-color="#FFB468"/>
<stop offset="1" stop-color="#FFF2E5"/>
</linearGradient>
<linearGradient id="paint1_linear_556_29252" x1="28" y1="25.8579" x2="28" y2="39.5085" gradientUnits="userSpaceOnUse">
<stop stop-color="#FFB468"/>
<stop offset="1" stop-color="#FFF2E5"/>
</linearGradient>
</defs>
</svg>
