<svg width="56" height="56" viewBox="0 0 56 56" fill="none" xmlns="http://www.w3.org/2000/svg">
<circle cx="28" cy="28.0004" r="19.9506" fill="url(#paint0_radial_556_29247)" stroke="#333333" stroke-width="1.5"/>
<rect x="16.5063" y="23.3052" width="2.29702" height="19.8105" rx="0.5" transform="rotate(-103.343 16.5063 23.3052)" fill="#FE5C5C" stroke="#333333" stroke-width="1.5" stroke-linejoin="round"/>
<rect x="21.8495" y="40.2168" width="2.29702" height="17.2153" rx="0.5" transform="rotate(-103.343 21.8495 40.2168)" fill="#FE5C5C" stroke="#333333" stroke-width="1.5" stroke-linejoin="round"/>
<rect x="14.6576" y="28.3569" width="2.29702" height="19.5653" rx="0.5" transform="rotate(-103.343 14.6576 28.3569)" fill="#6EB671" stroke="#333333" stroke-width="1.5" stroke-linejoin="round"/>
<rect x="15.9762" y="32.2686" width="2.29702" height="22.7015" rx="0.5" transform="rotate(-103.343 15.9762 32.2686)" fill="#FE5C5C" stroke="#333333" stroke-width="1.5" stroke-linejoin="round"/>
<rect x="20.1959" y="36.0088" width="2.29702" height="16.453" rx="0.5" transform="rotate(-103.343 20.1959 36.0088)" fill="url(#paint1_linear_556_29247)" stroke="#333333" stroke-width="1.5" stroke-linejoin="round"/>
<rect x="17.0365" y="18.4316" width="2.29702" height="16.1946" rx="0.5" transform="rotate(-103.343 17.0365 18.4316)" fill="url(#paint2_linear_556_29247)" stroke="#333333" stroke-width="1.5" stroke-linejoin="round"/>
<rect x="23.7773" y="44.834" width="2.29702" height="14.4412" rx="0.5" transform="rotate(-103.343 23.7773 44.834)" fill="url(#paint3_linear_556_29247)" stroke="#333333" stroke-width="1.5" stroke-linejoin="round"/>
<path d="M22.8045 29.0335C22.554 28.2784 22.1438 27.5785 21.5938 26.9848C20.6319 25.9463 19.3133 25.3092 17.9019 25.201C16.4904 25.0928 15.0902 25.5215 13.9812 26.4012C12.8722 27.281 12.1362 28.547 11.9205 29.9461C11.7048 31.3451 12.0251 32.774 12.8176 33.947C13.61 35.12 14.8161 35.9506 16.1945 36.2726C17.573 36.5946 19.0222 36.3844 20.2523 35.6839C20.9093 35.3098 21.3259 34.8665 21.6228 34.3247C21.9685 33.6936 21.9032 33.0087 21.6222 32.4684C21.4289 32.0967 21.1275 31.7762 20.7579 31.5522H20.7812C21.4133 31.5522 22.0146 31.2913 22.4177 30.8455C22.8337 30.3855 23.0339 29.7249 22.8045 29.0335ZM19.0903 30.9944C19.111 31.0107 19.1321 31.027 19.1536 31.0433C19.0567 31.0447 18.9597 31.0577 18.863 31.0834C18.6401 31.1427 18.4735 31.2561 18.363 31.3428C18.2931 31.3978 18.206 31.4764 18.1508 31.5262C18.1336 31.5417 18.1195 31.5545 18.11 31.5628C18.0468 31.6182 18.0048 31.6494 17.9672 31.6709C17.7483 31.7955 17.4904 31.8329 17.2451 31.7756C16.9999 31.7183 16.7853 31.5705 16.6443 31.3618C16.5033 31.1531 16.4462 30.8988 16.4846 30.6499C16.523 30.401 16.654 30.1757 16.8513 30.0191C17.0486 29.8626 17.2978 29.7863 17.5489 29.8056C17.8001 29.8248 18.0347 29.9382 18.2059 30.123C18.233 30.1522 18.2614 30.1831 18.2909 30.2153C18.5061 30.4495 18.7836 30.7514 19.0903 30.9944Z" fill="url(#paint4_linear_556_29247)" stroke="#333333" stroke-width="1.5"/>
<path d="M34.5626 23.4794C35.3177 23.2289 36.0177 22.8187 36.6114 22.2688C37.6499 21.3068 38.287 19.9882 38.3952 18.5768C38.5034 17.1654 38.0747 15.7651 37.1949 14.6561C36.3152 13.5471 35.0492 12.8112 33.6501 12.5954C32.2511 12.3797 30.8222 12.7001 29.6492 13.4925C28.4762 14.285 27.6456 15.491 27.3236 16.8695C27.0015 18.2479 27.2118 19.6972 27.9123 20.9273C28.2863 21.5842 28.7297 22.0008 29.2715 22.2977C29.9026 22.6434 30.5875 22.5781 31.1278 22.2971C31.4995 22.1038 31.82 21.8024 32.0439 21.4328L32.0439 21.4561C32.0439 22.0882 32.3049 22.6895 32.7507 23.0926C33.2106 23.5086 33.8713 23.7088 34.5626 23.4794ZM32.6018 19.7653C32.5855 19.7859 32.5691 19.807 32.5529 19.8285C32.5515 19.7317 32.5385 19.6346 32.5128 19.538C32.4534 19.315 32.3401 19.1484 32.2534 19.038C32.1984 18.968 32.1198 18.881 32.07 18.8258C32.0545 18.8086 32.0417 18.7944 32.0334 18.7849C31.978 18.7217 31.9468 18.6797 31.9253 18.6421C31.8007 18.4232 31.7633 18.1653 31.8206 17.9201C31.8779 17.6748 32.0257 17.4602 32.2344 17.3192C32.4431 17.1782 32.6974 17.1212 32.9463 17.1596C33.1952 17.1979 33.4205 17.3289 33.577 17.5262C33.7336 17.7236 33.8099 17.9727 33.7906 18.2239C33.7714 18.475 33.658 18.7096 33.4732 18.8808C33.4439 18.9079 33.4131 18.9363 33.3809 18.9658C33.1467 19.181 32.8448 19.4585 32.6018 19.7653Z" fill="url(#paint5_linear_556_29247)" stroke="#333333" stroke-width="1.5"/>
<path d="M31.6171 38.3145C32.0544 38.979 32.6319 39.5489 33.3167 39.9801C34.5147 40.7342 35.9532 41.0083 37.3446 40.7475C38.7359 40.4867 39.9775 39.7102 40.821 38.5734C41.6645 37.4366 42.0477 36.0232 41.894 34.616C41.7403 33.2088 41.061 31.9115 39.992 30.9836C38.923 30.0557 37.543 29.5656 36.1282 29.6113C34.7133 29.657 33.3679 30.2351 32.361 31.2301C31.8233 31.7615 31.5356 32.2976 31.3891 32.8978C31.2185 33.5968 31.4588 34.2415 31.8701 34.6907C32.153 34.9996 32.5271 35.2312 32.9421 35.3519L32.9196 35.3579C32.309 35.5215 31.7957 35.9292 31.5217 36.4641C31.2389 37.0161 31.2166 37.706 31.6171 38.3145ZM34.6972 35.4592C34.673 35.4487 34.6484 35.4384 34.6235 35.4282C34.7166 35.4018 34.807 35.3642 34.8937 35.3143C35.0937 35.1993 35.2253 35.0467 35.3095 34.9343C35.3628 34.8631 35.4266 34.7647 35.467 34.7023C35.4796 34.6828 35.49 34.6669 35.497 34.6563C35.5437 34.5865 35.5762 34.5454 35.607 34.515C35.7861 34.3379 36.0255 34.2351 36.2773 34.2269C36.529 34.2188 36.7746 34.306 36.9648 34.4711C37.155 34.6362 37.2759 34.8671 37.3032 35.1175C37.3306 35.3679 37.2624 35.6194 37.1123 35.8216C36.9622 36.0239 36.7413 36.1621 36.4937 36.2085C36.2462 36.2549 35.9902 36.2061 35.777 36.0719C35.7433 36.0507 35.7079 36.0282 35.671 36.0048C35.4025 35.8342 35.0564 35.6144 34.6972 35.4592Z" fill="url(#paint6_linear_556_29247)" stroke="#333333" stroke-width="1.5"/>
<defs>
<radialGradient id="paint0_radial_556_29247" cx="0" cy="0" r="1" gradientUnits="userSpaceOnUse" gradientTransform="translate(28 28.0004) rotate(90) scale(19.9506)">
<stop stop-color="#FFE9BE"/>
<stop offset="0.828125" stop-color="#FFE9BE"/>
<stop offset="1" stop-color="#FFBB37"/>
</radialGradient>
<linearGradient id="paint1_linear_556_29247" x1="21.3444" y1="36.0088" x2="21.3444" y2="52.4618" gradientUnits="userSpaceOnUse">
<stop stop-color="#6EB671"/>
<stop offset="1" stop-color="white"/>
</linearGradient>
<linearGradient id="paint2_linear_556_29247" x1="18.185" y1="18.4316" x2="18.185" y2="34.6262" gradientUnits="userSpaceOnUse">
<stop stop-color="#6EB671"/>
<stop offset="1" stop-color="white"/>
</linearGradient>
<linearGradient id="paint3_linear_556_29247" x1="24.9259" y1="44.834" x2="24.9259" y2="59.2752" gradientUnits="userSpaceOnUse">
<stop stop-color="#6EB671"/>
<stop offset="1" stop-color="white"/>
</linearGradient>
<linearGradient id="paint4_linear_556_29247" x1="17.4725" y1="25.9346" x2="17.4725" y2="35.6699" gradientUnits="userSpaceOnUse">
<stop stop-color="#FFC0C0"/>
<stop offset="1" stop-color="white"/>
</linearGradient>
<linearGradient id="paint5_linear_556_29247" x1="37.6616" y1="18.1475" x2="27.9263" y2="18.1475" gradientUnits="userSpaceOnUse">
<stop stop-color="#FFC0C0"/>
<stop offset="1" stop-color="white"/>
</linearGradient>
<linearGradient id="paint6_linear_556_29247" x1="37.5694" y1="39.9278" x2="35.0497" y2="30.5242" gradientUnits="userSpaceOnUse">
<stop stop-color="#FFC0C0"/>
<stop offset="1" stop-color="white"/>
</linearGradient>
</defs>
</svg>
