<svg width="33" height="32" viewBox="0 0 33 32" fill="none" xmlns="http://www.w3.org/2000/svg">
<g id="prime:clock">
<path id="Vector" d="M16.5 28C18.8734 28 21.1934 27.2962 23.1668 25.9776C25.1402 24.6591 26.6783 22.7849 27.5865 20.5922C28.4948 18.3995 28.7324 15.9867 28.2694 13.6589C27.8064 11.3311 26.6635 9.19295 24.9853 7.51472C23.307 5.83649 21.1689 4.6936 18.8411 4.23058C16.5133 3.76756 14.1005 4.0052 11.9078 4.91345C9.71508 5.8217 7.84094 7.35977 6.52236 9.33316C5.20378 11.3066 4.5 13.6266 4.5 16C4.5 19.1826 5.76428 22.2348 8.01472 24.4853C10.2652 26.7357 13.3174 28 16.5 28ZM16.5 6.00001C18.4778 6.00001 20.4112 6.5865 22.0557 7.68531C23.7002 8.78412 24.9819 10.3459 25.7388 12.1732C26.4957 14.0004 26.6937 16.0111 26.3078 17.9509C25.922 19.8907 24.9696 21.6725 23.5711 23.0711C22.1725 24.4696 20.3907 25.422 18.4509 25.8079C16.5111 26.1937 14.5004 25.9957 12.6732 25.2388C10.8459 24.4819 9.28411 23.2002 8.1853 21.5557C7.08648 19.9112 6.5 17.9778 6.5 16C6.5 13.3478 7.55356 10.8043 9.42893 8.92894C11.3043 7.05357 13.8478 6.00001 16.5 6.00001Z" fill="black"/>
<path id="Vector_2" d="M12.5 17.0002H16.5C16.7641 16.9967 17.0165 16.8902 17.2033 16.7035C17.3901 16.5167 17.4965 16.2643 17.5 16.0002V9.3335C17.5 9.06828 17.3946 8.81393 17.2071 8.62639C17.0196 8.43885 16.7652 8.3335 16.5 8.3335C16.2348 8.3335 15.9804 8.43885 15.7929 8.62639C15.6054 8.81393 15.5 9.06828 15.5 9.3335V15.0002H12.5C12.2348 15.0002 11.9804 15.1055 11.7929 15.2931C11.6054 15.4806 11.5 15.7349 11.5 16.0002C11.5 16.2654 11.6054 16.5197 11.7929 16.7073C11.9804 16.8948 12.2348 17.0002 12.5 17.0002Z" fill="black"/>
</g>
</svg>
