<svg width="56" height="56" viewBox="0 0 56 56" fill="none" xmlns="http://www.w3.org/2000/svg">
<rect x="10.4377" y="20.2471" width="35.1246" height="22.6499" rx="3" fill="#848484" stroke="#333333" stroke-width="1.5" stroke-linejoin="round"/>
<rect x="13.8333" y="23.9853" width="17.8962" height="15.1735" rx="1" fill="#FFC37D" stroke="#333333" stroke-width="1.5" stroke-linejoin="round"/>
<circle cx="38.8635" cy="36.3392" r="3.04233" fill="#D2D2D2" stroke="#333333" stroke-width="1.5"/>
<path d="M35.1919 24.4731H37.1289" stroke="#333333" stroke-width="1.5" stroke-linecap="round" stroke-linejoin="round"/>
<path d="M21.8129 31.9373H23.7499" stroke="#333333" stroke-width="1.5" stroke-linecap="round" stroke-linejoin="round"/>
<path d="M22.7814 30.9685L22.7814 32.9055" stroke="#333333" stroke-width="1.5" stroke-linecap="round" stroke-linejoin="round"/>
<path d="M39.9689 24.4731H41.9059" stroke="#333333" stroke-width="1.5" stroke-linecap="round" stroke-linejoin="round"/>
<path d="M35.1919 27.0086H37.1289" stroke="#333333" stroke-width="1.5" stroke-linecap="round" stroke-linejoin="round"/>
<path d="M39.9689 27.0086H41.9059" stroke="#333333" stroke-width="1.5" stroke-linecap="round" stroke-linejoin="round"/>
<path d="M35.1919 29.5441H37.1289" stroke="#333333" stroke-width="1.5" stroke-linecap="round" stroke-linejoin="round"/>
<path d="M39.9689 29.5441H41.9059" stroke="#333333" stroke-width="1.5" stroke-linecap="round" stroke-linejoin="round"/>
<path d="M16.9553 33.7822V35.3719C16.9553 35.9242 17.403 36.3719 17.9553 36.3719H19.6586" stroke="#333333" stroke-width="1.5" stroke-linecap="round" stroke-linejoin="round"/>
<path d="M28.777 29.5983L28.777 28.0086C28.777 27.4563 28.3293 27.0086 27.777 27.0086L26.0737 27.0086" stroke="#333333" stroke-width="1.5" stroke-linecap="round" stroke-linejoin="round"/>
<path d="M19.545 27.0086L17.9553 27.0086C17.403 27.0086 16.9553 27.4563 16.9553 28.0086L16.9553 29.7119" stroke="#333333" stroke-width="1.5" stroke-linecap="round" stroke-linejoin="round"/>
<path d="M26.1874 36.371L27.7771 36.371C28.3294 36.371 28.7771 35.9233 28.7771 35.371L28.7771 33.6677" stroke="#333333" stroke-width="1.5" stroke-linecap="round" stroke-linejoin="round"/>
<path d="M38.8635 35.241L38.8635 36.3391" stroke="#333333" stroke-width="1.5" stroke-linecap="round" stroke-linejoin="round"/>
<path d="M22.4008 7.36866C22.867 7.96342 24.096 9.56825 22.4008 10.6517C20.447 11.9004 21.2007 12.9775 22.4008 14.22" stroke="#333333" stroke-width="1.5" stroke-linecap="round"/>
<path d="M28.1655 6.87881C28.6316 7.47357 29.8607 9.0784 28.1655 10.1618C26.2116 11.4105 26.9653 12.4876 28.1655 13.7302" stroke="#333333" stroke-width="1.5" stroke-linecap="round"/>
<path d="M33.9301 7.36866C34.3963 7.96342 35.6253 9.56825 33.9301 10.6517C31.9763 11.9004 32.73 12.9775 33.9301 14.22" stroke="#333333" stroke-width="1.5" stroke-linecap="round"/>
</svg>
