<svg width="56" height="56" viewBox="0 0 56 56" fill="none" xmlns="http://www.w3.org/2000/svg">
<path fill-rule="evenodd" clip-rule="evenodd" d="M32.3992 35.6627C35.9655 33.5457 43.491 32.7375 45.0536 26.7683C46.6161 20.7991 43.505 16.2251 37.8734 14.7509C32.2417 13.2767 29.5978 18.2488 25.3099 19.6576C21.022 21.0664 13.765 22.5892 12.2024 28.5584C10.6398 34.5276 14.4286 41.2784 20.0603 42.7526C25.692 44.2268 28.8329 37.7797 32.3992 35.6627Z" fill="white" stroke="#333333" stroke-width="1.5"/>
<path fill-rule="evenodd" clip-rule="evenodd" d="M31.2666 33.7188C34.7394 31.6661 42.0708 30.8879 43.5879 25.0924C45.105 19.2969 42.0698 14.8522 36.5815 13.4155C31.0932 11.9788 28.5217 16.805 24.3452 18.1694C20.1687 19.5337 13.0995 21.006 11.5824 26.8015C10.0653 32.597 13.7628 39.1564 19.2511 40.593C24.7394 42.0297 27.7938 35.7715 31.2666 33.7188Z" fill="white" stroke="#333333" stroke-width="1.5"/>
<path d="M15.2471 27.2865C13.611 30.8526 15.8215 34.8704 19.9072 37.0315C24.2602 38.171 26.6184 33.8012 24.7708 31.7769C23.1801 30.0343 25.1513 25.8957 22.9329 23.9351C20.7145 21.9744 16.5824 24.376 15.2471 27.2865Z" fill="white" stroke="#333333" stroke-width="1.5" stroke-linecap="round"/>
<path d="M34.9637 17.1951C31.8852 17.037 29.2083 17.7764 27.4854 20.969C25.7625 24.1615 26.1287 32.9884 30.2007 30.2313C35.8811 26.3852 38.5423 26.8133 39.8305 24.2008C41.1188 21.5882 38.9184 17.3983 34.9637 17.1951Z" fill="white" stroke="#333333" stroke-width="1.5" stroke-linecap="round"/>
<ellipse cx="1.99791" cy="1.66613" rx="1.99791" ry="1.66613" transform="matrix(0.967595 -0.252509 0.208616 0.977998 31.6927 20.4512)" fill="white" stroke="#333333" stroke-width="1.5"/>
<ellipse cx="1.99791" cy="1.66613" rx="1.99791" ry="1.66613" transform="matrix(0.967595 -0.252509 0.208616 0.977998 17.3021 28.1943)" fill="white" stroke="#333333" stroke-width="1.5"/>
</svg>
