<svg width="56" height="56" viewBox="0 0 56 56" fill="none" xmlns="http://www.w3.org/2000/svg">
<path d="M14.1387 15.5211L40.4662 10.2513" stroke="#333333" stroke-width="1.5" stroke-linecap="round"/>
<path d="M14.1387 18.6939L40.8577 16.0465" stroke="#333333" stroke-width="1.5" stroke-linecap="round"/>
<circle cx="30.2479" cy="29.1814" r="6.03809" fill="white" stroke="#333333" stroke-width="1.5"/>
<circle cx="35.5706" cy="30.8254" r="6.03809" fill="white" stroke="#333333" stroke-width="1.5"/>
<circle cx="30.181" cy="29.1812" r="3.64722" fill="white" stroke="#333333" stroke-width="1.5"/>
<circle cx="35.5037" cy="30.8252" r="3.64722" fill="white" stroke="#333333" stroke-width="1.5"/>
<circle cx="30.181" cy="29.3136" r="1.39246" fill="white" stroke="#333333" stroke-width="1.5"/>
<circle cx="35.5037" cy="30.9576" r="1.39246" fill="white" stroke="#333333" stroke-width="1.5"/>
<rect x="17.135" y="12.573" width="2.34961" height="23.5454" rx="1.1748" fill="white" stroke="#333333" stroke-width="1.5"/>
<rect x="19.4846" y="11.6746" width="2.34961" height="23.5454" rx="1.1748" fill="white" stroke="#333333" stroke-width="1.5"/>
<rect x="21.8342" y="10.7761" width="2.34961" height="23.5454" rx="1.1748" fill="white" stroke="#333333" stroke-width="1.5"/>
<rect x="21.114" y="40.9362" width="13.6907" height="6.66181" rx="1" fill="white" stroke="#333333" stroke-width="1.5"/>
<path d="M11.7683 31.2793C11.7683 30.5939 12.3239 30.0383 13.0093 30.0383H42.9907C43.6761 30.0383 44.2317 30.5939 44.2317 31.2793V31.2793C44.2317 38.1329 38.6757 43.6889 31.8221 43.6889H24.1779C17.3243 43.6889 11.7683 38.1329 11.7683 31.2793V31.2793Z" fill="white" stroke="#333333" stroke-width="1.5"/>
<path d="M15.7866 33.7263C15.9932 34.4554 16.4809 35.9237 17.4691 36.7143" stroke="#333333" stroke-width="1.5" stroke-linecap="round"/>
</svg>
